<svg width="1440" height="482" viewBox="0 0 1440 482" fill="none" xmlns="http://www.w3.org/2000/svg">
<path d="M1234.86 367L1235.93 363.683H1241.18L1242.26 367H1245.56L1240.54 352.455H1236.58L1231.56 367H1234.86ZM1236.72 361.283L1238.51 355.778H1238.62L1240.41 361.283H1236.72ZM1254.25 362.355C1254.26 363.818 1253.25 364.585 1252.17 364.585C1251.02 364.585 1250.28 363.783 1250.28 362.497V356.091H1247.25V363.037C1247.26 365.587 1248.75 367.142 1250.95 367.142C1252.59 367.142 1253.77 366.297 1254.26 365.018H1254.37V367H1257.27V356.091H1254.25V362.355ZM1263.71 367.178C1265.47 367.178 1266.39 366.162 1266.81 365.253H1266.94V367H1269.92V352.455H1266.9V357.923H1266.81C1266.41 357.036 1265.53 355.949 1263.71 355.949C1261.31 355.949 1259.29 357.81 1259.29 361.56C1259.29 365.21 1261.23 367.178 1263.71 367.178ZM1264.67 364.77C1263.19 364.77 1262.38 363.449 1262.38 361.545C1262.38 359.656 1263.17 358.357 1264.67 358.357C1266.14 358.357 1266.97 359.599 1266.97 361.545C1266.97 363.491 1266.13 364.77 1264.67 364.77ZM1272.41 367H1275.43V356.091H1272.41V367ZM1273.93 354.685C1274.83 354.685 1275.57 353.996 1275.57 353.151C1275.57 352.312 1274.83 351.624 1273.93 351.624C1273.03 351.624 1272.29 352.312 1272.29 353.151C1272.29 353.996 1273.03 354.685 1273.93 354.685ZM1282.79 367.213C1286.1 367.213 1288.16 364.947 1288.16 361.588C1288.16 358.207 1286.1 355.949 1282.79 355.949C1279.48 355.949 1277.42 358.207 1277.42 361.588C1277.42 364.947 1279.48 367.213 1282.79 367.213ZM1282.8 364.869C1281.27 364.869 1280.49 363.47 1280.49 361.567C1280.49 359.663 1281.27 358.257 1282.8 358.257C1284.3 358.257 1285.08 359.663 1285.08 361.567C1285.08 363.47 1284.3 364.869 1282.8 364.869Z" fill="white"/>
<path d="M1133.21 425H1134.8V420.219H1137.66C1140.71 420.219 1142.08 418.365 1142.08 416.051C1142.08 413.737 1140.71 411.909 1137.64 411.909H1133.21V425ZM1134.8 418.812V413.315H1137.58C1139.71 413.315 1140.52 414.479 1140.52 416.051C1140.52 417.624 1139.71 418.812 1137.61 418.812H1134.8ZM1144.43 425H1145.94V418.787C1145.94 417.457 1146.99 416.486 1148.42 416.486C1148.82 416.486 1149.24 416.562 1149.34 416.588V415.054C1149.17 415.041 1148.77 415.028 1148.55 415.028C1147.37 415.028 1146.35 415.693 1145.99 416.665H1145.89V415.182H1144.43V425ZM1154.82 425.205C1157.48 425.205 1159.27 423.185 1159.27 420.142C1159.27 417.074 1157.48 415.054 1154.82 415.054C1152.16 415.054 1150.37 417.074 1150.37 420.142C1150.37 423.185 1152.16 425.205 1154.82 425.205ZM1154.82 423.849C1152.8 423.849 1151.88 422.111 1151.88 420.142C1151.88 418.173 1152.8 416.409 1154.82 416.409C1156.84 416.409 1157.76 418.173 1157.76 420.142C1157.76 422.111 1156.84 423.849 1154.82 423.849ZM1165.94 415.182H1163.75V414.185C1163.75 413.213 1164.15 412.702 1165.15 412.702C1165.59 412.702 1165.84 412.804 1166 412.855L1166.43 411.551C1166.2 411.449 1165.74 411.295 1165 411.295C1163.59 411.295 1162.24 412.139 1162.24 413.827V415.182H1160.65V416.46H1162.24V425H1163.75V416.46H1165.94V415.182ZM1171.77 425.205C1173.76 425.205 1175.22 424.207 1175.68 422.724L1174.23 422.315C1173.84 423.338 1172.95 423.849 1171.77 423.849C1170 423.849 1168.78 422.705 1168.71 420.602H1175.84V419.963C1175.84 416.307 1173.66 415.054 1171.62 415.054C1168.96 415.054 1167.19 417.151 1167.19 420.168C1167.19 423.185 1168.93 425.205 1171.77 425.205ZM1168.71 419.298C1168.81 417.771 1169.89 416.409 1171.62 416.409C1173.25 416.409 1174.3 417.636 1174.3 419.298H1168.71ZM1185.09 417.381C1184.61 415.987 1183.55 415.054 1181.61 415.054C1179.54 415.054 1178 416.23 1178 417.892C1178 419.247 1178.81 420.155 1180.61 420.577L1182.25 420.96C1183.24 421.19 1183.7 421.663 1183.7 422.341C1183.7 423.185 1182.81 423.875 1181.4 423.875C1180.17 423.875 1179.4 423.344 1179.13 422.29L1177.7 422.648C1178.05 424.316 1179.42 425.205 1181.43 425.205C1183.71 425.205 1185.26 423.958 1185.26 422.264C1185.26 420.896 1184.41 420.033 1182.66 419.605L1181.2 419.247C1180.04 418.96 1179.51 418.57 1179.51 417.815C1179.51 416.972 1180.41 416.358 1181.61 416.358C1182.92 416.358 1183.47 417.087 1183.73 417.764L1185.09 417.381ZM1194.49 417.381C1194.02 415.987 1192.96 415.054 1191.01 415.054C1188.94 415.054 1187.41 416.23 1187.41 417.892C1187.41 419.247 1188.21 420.155 1190.02 420.577L1191.65 420.96C1192.64 421.19 1193.11 421.663 1193.11 422.341C1193.11 423.185 1192.21 423.875 1190.81 423.875C1189.57 423.875 1188.8 423.344 1188.53 422.29L1187.1 422.648C1187.45 424.316 1188.83 425.205 1190.83 425.205C1193.12 425.205 1194.67 423.958 1194.67 422.264C1194.67 420.896 1193.81 420.033 1192.06 419.605L1190.6 419.247C1189.44 418.96 1188.92 418.57 1188.92 417.815C1188.92 416.972 1189.81 416.358 1191.01 416.358C1192.33 416.358 1192.87 417.087 1193.13 417.764L1194.49 417.381ZM1196.94 425H1198.45V415.182H1196.94V425ZM1197.71 413.545C1198.29 413.545 1198.78 413.085 1198.78 412.523C1198.78 411.96 1198.29 411.5 1197.71 411.5C1197.12 411.5 1196.63 411.96 1196.63 412.523C1196.63 413.085 1197.12 413.545 1197.71 413.545ZM1205.2 425.205C1207.86 425.205 1209.65 423.185 1209.65 420.142C1209.65 417.074 1207.86 415.054 1205.2 415.054C1202.54 415.054 1200.75 417.074 1200.75 420.142C1200.75 423.185 1202.54 425.205 1205.2 425.205ZM1205.2 423.849C1203.18 423.849 1202.26 422.111 1202.26 420.142C1202.26 418.173 1203.18 416.409 1205.2 416.409C1207.22 416.409 1208.14 418.173 1208.14 420.142C1208.14 422.111 1207.22 423.849 1205.2 423.849ZM1213.46 419.094C1213.46 417.381 1214.52 416.409 1215.97 416.409C1217.37 416.409 1218.22 417.323 1218.22 418.864V425H1219.72V418.761C1219.72 416.256 1218.39 415.054 1216.4 415.054C1214.92 415.054 1214 415.719 1213.54 416.716H1213.41V415.182H1211.95V425H1213.46V419.094ZM1225.37 425.23C1227.08 425.23 1227.98 424.31 1228.28 423.67H1228.36V425H1229.87V418.531C1229.87 415.412 1227.49 415.054 1226.24 415.054C1224.76 415.054 1223.07 415.565 1222.3 417.355L1223.73 417.866C1224.07 417.151 1224.85 416.384 1226.29 416.384C1227.68 416.384 1228.36 417.119 1228.36 418.378V418.429C1228.36 419.158 1227.62 419.094 1225.83 419.324C1224.01 419.56 1222.02 419.963 1222.02 422.213C1222.02 424.131 1223.5 425.23 1225.37 425.23ZM1225.6 423.875C1224.4 423.875 1223.53 423.338 1223.53 422.29C1223.53 421.139 1224.58 420.781 1225.75 420.628C1226.39 420.551 1228.11 420.372 1228.36 420.065V421.446C1228.36 422.673 1227.39 423.875 1225.6 423.875ZM1234.13 411.909H1232.62V425H1234.13V411.909ZM1248.91 417.381C1248.44 415.987 1247.38 415.054 1245.43 415.054C1243.36 415.054 1241.83 416.23 1241.83 417.892C1241.83 419.247 1242.63 420.155 1244.44 420.577L1246.07 420.96C1247.06 421.19 1247.53 421.663 1247.53 422.341C1247.53 423.185 1246.64 423.875 1245.23 423.875C1244 423.875 1243.22 423.344 1242.95 422.29L1241.52 422.648C1241.87 424.316 1243.25 425.205 1245.26 425.205C1247.54 425.205 1249.09 423.958 1249.09 422.264C1249.09 420.896 1248.23 420.033 1246.48 419.605L1245.03 419.247C1243.86 418.96 1243.34 418.57 1243.34 417.815C1243.34 416.972 1244.23 416.358 1245.43 416.358C1246.75 416.358 1247.29 417.087 1247.56 417.764L1248.91 417.381ZM1255.35 425.205C1258.01 425.205 1259.8 423.185 1259.8 420.142C1259.8 417.074 1258.01 415.054 1255.35 415.054C1252.69 415.054 1250.9 417.074 1250.9 420.142C1250.9 423.185 1252.69 425.205 1255.35 425.205ZM1255.35 423.849C1253.33 423.849 1252.41 422.111 1252.41 420.142C1252.41 418.173 1253.33 416.409 1255.35 416.409C1257.37 416.409 1258.29 418.173 1258.29 420.142C1258.29 422.111 1257.37 423.849 1255.35 423.849ZM1268.29 420.986C1268.29 422.827 1266.88 423.67 1265.76 423.67C1264.5 423.67 1263.61 422.75 1263.61 421.318V415.182H1262.1V421.42C1262.1 423.926 1263.43 425.128 1265.27 425.128C1266.75 425.128 1267.73 424.335 1268.19 423.338H1268.29V425H1269.8V415.182H1268.29V420.986ZM1274.07 419.094C1274.07 417.381 1275.13 416.409 1276.57 416.409C1277.97 416.409 1278.82 417.323 1278.82 418.864V425H1280.33V418.761C1280.33 416.256 1279 415.054 1277.01 415.054C1275.53 415.054 1274.61 415.719 1274.15 416.716H1274.02V415.182H1272.56V425H1274.07V419.094ZM1286.8 425.205C1288.69 425.205 1289.33 424.028 1289.66 423.491H1289.84V425H1291.3V411.909H1289.79V416.741H1289.66C1289.33 416.23 1288.74 415.054 1286.82 415.054C1284.34 415.054 1282.63 417.023 1282.63 420.116C1282.63 423.236 1284.34 425.205 1286.8 425.205ZM1287 423.849C1285.11 423.849 1284.14 422.188 1284.14 420.091C1284.14 418.02 1285.08 416.409 1287 416.409C1288.84 416.409 1289.81 417.892 1289.81 420.091C1289.81 422.315 1288.82 423.849 1287 423.849ZM1301.22 417.381C1300.75 415.987 1299.69 415.054 1297.75 415.054C1295.68 415.054 1294.14 416.23 1294.14 417.892C1294.14 419.247 1294.95 420.155 1296.75 420.577L1298.39 420.96C1299.38 421.19 1299.84 421.663 1299.84 422.341C1299.84 423.185 1298.95 423.875 1297.54 423.875C1296.31 423.875 1295.53 423.344 1295.27 422.29L1293.83 422.648C1294.19 424.316 1295.56 425.205 1297.57 425.205C1299.85 425.205 1301.4 423.958 1301.4 422.264C1301.4 420.896 1300.55 420.033 1298.79 419.605L1297.34 419.247C1296.17 418.96 1295.65 418.57 1295.65 417.815C1295.65 416.972 1296.54 416.358 1297.75 416.358C1299.06 416.358 1299.61 417.087 1299.87 417.764L1301.22 417.381ZM1308.74 425H1310.24V418.787C1310.24 417.457 1311.29 416.486 1312.72 416.486C1313.13 416.486 1313.54 416.562 1313.65 416.588V415.054C1313.47 415.041 1313.08 415.028 1312.85 415.028C1311.68 415.028 1310.65 415.693 1310.3 416.665H1310.19V415.182H1308.74V425ZM1319.25 425.205C1321.25 425.205 1322.7 424.207 1323.16 422.724L1321.71 422.315C1321.32 423.338 1320.43 423.849 1319.25 423.849C1317.48 423.849 1316.26 422.705 1316.19 420.602H1323.32V419.963C1323.32 416.307 1321.14 415.054 1319.1 415.054C1316.44 415.054 1314.67 417.151 1314.67 420.168C1314.67 423.185 1316.41 425.205 1319.25 425.205ZM1316.19 419.298C1316.29 417.771 1317.37 416.409 1319.1 416.409C1320.73 416.409 1321.78 417.636 1321.78 419.298H1316.19ZM1329.6 425.205C1331.77 425.205 1333.2 423.875 1333.46 422.136H1331.95C1331.67 423.21 1330.78 423.849 1329.6 423.849C1327.81 423.849 1326.66 422.366 1326.66 420.091C1326.66 417.866 1327.84 416.409 1329.6 416.409C1330.93 416.409 1331.72 417.227 1331.95 418.122H1333.46C1333.2 416.281 1331.65 415.054 1329.57 415.054C1326.92 415.054 1325.15 417.151 1325.15 420.142C1325.15 423.082 1326.84 425.205 1329.6 425.205ZM1339.65 425.205C1342.31 425.205 1344.1 423.185 1344.1 420.142C1344.1 417.074 1342.31 415.054 1339.65 415.054C1337 415.054 1335.21 417.074 1335.21 420.142C1335.21 423.185 1337 425.205 1339.65 425.205ZM1339.65 423.849C1337.63 423.849 1336.71 422.111 1336.71 420.142C1336.71 418.173 1337.63 416.409 1339.65 416.409C1341.67 416.409 1342.59 418.173 1342.59 420.142C1342.59 422.111 1341.67 423.849 1339.65 423.849ZM1346.41 425H1347.91V418.787C1347.91 417.457 1348.96 416.486 1350.39 416.486C1350.8 416.486 1351.21 416.562 1351.32 416.588V415.054C1351.14 415.041 1350.75 415.028 1350.52 415.028C1349.35 415.028 1348.32 415.693 1347.97 416.665H1347.86V415.182H1346.41V425ZM1356.51 425.205C1358.4 425.205 1359.04 424.028 1359.38 423.491H1359.55V425H1361.01V411.909H1359.5V416.741H1359.38C1359.04 416.23 1358.46 415.054 1356.54 415.054C1354.06 415.054 1352.34 417.023 1352.34 420.116C1352.34 423.236 1354.06 425.205 1356.51 425.205ZM1356.72 423.849C1354.82 423.849 1353.85 422.188 1353.85 420.091C1353.85 418.02 1354.8 416.409 1356.72 416.409C1358.56 416.409 1359.53 417.892 1359.53 420.091C1359.53 422.315 1358.53 423.849 1356.72 423.849ZM1363.98 425H1365.49V415.182H1363.98V425ZM1364.75 413.545C1365.34 413.545 1365.83 413.085 1365.83 412.523C1365.83 411.96 1365.34 411.5 1364.75 411.5C1364.16 411.5 1363.68 411.96 1363.68 412.523C1363.68 413.085 1364.16 413.545 1364.75 413.545ZM1369.76 419.094C1369.76 417.381 1370.83 416.409 1372.27 416.409C1373.67 416.409 1374.52 417.323 1374.52 418.864V425H1376.03V418.761C1376.03 416.256 1374.69 415.054 1372.7 415.054C1371.22 415.054 1370.3 415.719 1369.84 416.716H1369.71V415.182H1368.26V425H1369.76V419.094ZM1382.75 428.886C1385.1 428.886 1386.99 427.812 1386.99 425.281V415.182H1385.53V416.741H1385.38C1385.05 416.23 1384.44 415.054 1382.52 415.054C1380.04 415.054 1378.32 417.023 1378.32 420.04C1378.32 423.108 1380.11 424.847 1382.49 424.847C1384.41 424.847 1385.02 423.722 1385.36 423.185H1385.48V425.179C1385.48 426.815 1384.33 427.557 1382.75 427.557C1380.96 427.557 1380.34 426.617 1379.94 426.074L1378.73 426.918C1379.35 427.947 1380.56 428.886 1382.75 428.886ZM1382.7 423.491C1380.8 423.491 1379.83 422.06 1379.83 420.014C1379.83 418.02 1380.78 416.409 1382.7 416.409C1384.54 416.409 1385.51 417.892 1385.51 420.014C1385.51 422.188 1384.51 423.491 1382.7 423.491ZM1134.8 451.182H1132.6V450.185C1132.6 449.213 1133.01 448.702 1134 448.702C1134.44 448.702 1134.69 448.804 1134.85 448.855L1135.28 447.551C1135.05 447.449 1134.59 447.295 1133.85 447.295C1132.44 447.295 1131.09 448.139 1131.09 449.827V451.182H1129.5V452.46H1131.09V461H1132.6V452.46H1134.8V451.182ZM1140.49 461.205C1143.15 461.205 1144.94 459.185 1144.94 456.142C1144.94 453.074 1143.15 451.054 1140.49 451.054C1137.84 451.054 1136.05 453.074 1136.05 456.142C1136.05 459.185 1137.84 461.205 1140.49 461.205ZM1140.49 459.849C1138.47 459.849 1137.55 458.111 1137.55 456.142C1137.55 454.173 1138.47 452.409 1140.49 452.409C1142.51 452.409 1143.43 454.173 1143.43 456.142C1143.43 458.111 1142.51 459.849 1140.49 459.849ZM1147.25 461H1148.75V454.787C1148.75 453.457 1149.8 452.486 1151.23 452.486C1151.64 452.486 1152.05 452.562 1152.16 452.588V451.054C1151.98 451.041 1151.59 451.028 1151.36 451.028C1150.19 451.028 1149.16 451.693 1148.81 452.665H1148.7V451.182H1147.25V461ZM1167.03 451.182H1165.4L1162.69 459.006H1162.59L1159.88 451.182H1158.24L1161.87 461H1163.4L1167.03 451.182ZM1169.03 461H1170.53V451.182H1169.03V461ZM1169.79 449.545C1170.38 449.545 1170.87 449.085 1170.87 448.523C1170.87 447.96 1170.38 447.5 1169.79 447.5C1169.2 447.5 1168.72 447.96 1168.72 448.523C1168.72 449.085 1169.2 449.545 1169.79 449.545ZM1177 461.205C1178.9 461.205 1179.54 460.028 1179.87 459.491H1180.05V461H1181.5V447.909H1180V452.741H1179.87C1179.54 452.23 1178.95 451.054 1177.03 451.054C1174.55 451.054 1172.84 453.023 1172.84 456.116C1172.84 459.236 1174.55 461.205 1177 461.205ZM1177.21 459.849C1175.32 459.849 1174.34 458.188 1174.34 456.091C1174.34 454.02 1175.29 452.409 1177.21 452.409C1179.05 452.409 1180.02 453.892 1180.02 456.091C1180.02 458.315 1179.02 459.849 1177.21 459.849ZM1188.59 461.205C1190.59 461.205 1192.04 460.207 1192.5 458.724L1191.05 458.315C1190.66 459.338 1189.78 459.849 1188.59 459.849C1186.82 459.849 1185.6 458.705 1185.53 456.602H1192.66V455.963C1192.66 452.307 1190.48 451.054 1188.44 451.054C1185.78 451.054 1184.02 453.151 1184.02 456.168C1184.02 459.185 1185.75 461.205 1188.59 461.205ZM1185.53 455.298C1185.63 453.771 1186.71 452.409 1188.44 452.409C1190.08 452.409 1191.12 453.636 1191.12 455.298H1185.53ZM1198.94 461.205C1201.6 461.205 1203.39 459.185 1203.39 456.142C1203.39 453.074 1201.6 451.054 1198.94 451.054C1196.28 451.054 1194.49 453.074 1194.49 456.142C1194.49 459.185 1196.28 461.205 1198.94 461.205ZM1198.94 459.849C1196.92 459.849 1196 458.111 1196 456.142C1196 454.173 1196.92 452.409 1198.94 452.409C1200.96 452.409 1201.88 454.173 1201.88 456.142C1201.88 458.111 1200.96 459.849 1198.94 459.849ZM1207.94 459.21H1206.31L1206.23 459.926C1206.04 461.658 1205.68 463.384 1205.51 464.196H1206.66C1206.97 463.327 1207.62 461.358 1207.84 459.901L1207.94 459.21ZM1218.69 461.23C1220.4 461.23 1221.3 460.31 1221.6 459.67H1221.68V461H1223.19V454.531C1223.19 451.412 1220.81 451.054 1219.56 451.054C1218.08 451.054 1216.39 451.565 1215.62 453.355L1217.05 453.866C1217.39 453.151 1218.17 452.384 1219.61 452.384C1221 452.384 1221.68 453.119 1221.68 454.378V454.429C1221.68 455.158 1220.94 455.094 1219.15 455.324C1217.33 455.56 1215.34 455.963 1215.34 458.213C1215.34 460.131 1216.82 461.23 1218.69 461.23ZM1218.92 459.875C1217.72 459.875 1216.85 459.338 1216.85 458.29C1216.85 457.139 1217.9 456.781 1219.07 456.628C1219.71 456.551 1221.43 456.372 1221.68 456.065V457.446C1221.68 458.673 1220.71 459.875 1218.92 459.875ZM1229.65 461.205C1231.54 461.205 1232.18 460.028 1232.51 459.491H1232.69V461H1234.15V447.909H1232.64V452.741H1232.51C1232.18 452.23 1231.59 451.054 1229.68 451.054C1227.2 451.054 1225.48 453.023 1225.48 456.116C1225.48 459.236 1227.2 461.205 1229.65 461.205ZM1229.86 459.849C1227.96 459.849 1226.99 458.188 1226.99 456.091C1226.99 454.02 1227.94 452.409 1229.86 452.409C1231.7 452.409 1232.67 453.892 1232.67 456.091C1232.67 458.315 1231.67 459.849 1229.86 459.849ZM1245.15 451.182H1243.51L1240.8 459.006H1240.7L1237.99 451.182H1236.36L1239.99 461H1241.52L1245.15 451.182ZM1250.91 461.205C1252.9 461.205 1254.36 460.207 1254.82 458.724L1253.36 458.315C1252.98 459.338 1252.09 459.849 1250.91 459.849C1249.14 459.849 1247.92 458.705 1247.85 456.602H1254.97V455.963C1254.97 452.307 1252.8 451.054 1250.75 451.054C1248.09 451.054 1246.33 453.151 1246.33 456.168C1246.33 459.185 1248.07 461.205 1250.91 461.205ZM1247.85 455.298C1247.95 453.771 1249.03 452.409 1250.75 452.409C1252.39 452.409 1253.44 453.636 1253.44 455.298H1247.85ZM1257.27 461H1258.78V454.787C1258.78 453.457 1259.82 452.486 1261.26 452.486C1261.66 452.486 1262.07 452.562 1262.18 452.588V451.054C1262 451.041 1261.61 451.028 1261.38 451.028C1260.21 451.028 1259.19 451.693 1258.83 452.665H1258.72V451.182H1257.27V461ZM1268.85 451.182H1266.75V448.83H1265.24V451.182H1263.76V452.46H1265.24V458.597C1265.24 460.31 1266.63 461.128 1267.9 461.128C1268.47 461.128 1268.82 461.026 1269.03 460.949L1268.72 459.594C1268.59 459.619 1268.39 459.67 1268.06 459.67C1267.39 459.67 1266.75 459.466 1266.75 458.188V452.46H1268.85V451.182ZM1271.12 461H1272.63V451.182H1271.12V461ZM1271.89 449.545C1272.47 449.545 1272.96 449.085 1272.96 448.523C1272.96 447.96 1272.47 447.5 1271.89 447.5C1271.3 447.5 1270.81 447.96 1270.81 448.523C1270.81 449.085 1271.3 449.545 1271.89 449.545ZM1282.34 453.381C1281.87 451.987 1280.81 451.054 1278.87 451.054C1276.8 451.054 1275.26 452.23 1275.26 453.892C1275.26 455.247 1276.07 456.155 1277.87 456.577L1279.51 456.96C1280.5 457.19 1280.96 457.663 1280.96 458.341C1280.96 459.185 1280.07 459.875 1278.66 459.875C1277.43 459.875 1276.66 459.344 1276.39 458.29L1274.96 458.648C1275.31 460.316 1276.68 461.205 1278.69 461.205C1280.97 461.205 1282.52 459.958 1282.52 458.264C1282.52 456.896 1281.67 456.033 1279.92 455.605L1278.46 455.247C1277.3 454.96 1276.77 454.57 1276.77 453.815C1276.77 452.972 1277.67 452.358 1278.87 452.358C1280.18 452.358 1280.73 453.087 1280.99 453.764L1282.34 453.381ZM1284.79 461H1286.3V451.182H1284.79V461ZM1285.56 449.545C1286.15 449.545 1286.64 449.085 1286.64 448.523C1286.64 447.96 1286.15 447.5 1285.56 447.5C1284.97 447.5 1284.49 447.96 1284.49 448.523C1284.49 449.085 1284.97 449.545 1285.56 449.545ZM1290.57 455.094C1290.57 453.381 1291.64 452.409 1293.08 452.409C1294.48 452.409 1295.33 453.323 1295.33 454.864V461H1296.84V454.761C1296.84 452.256 1295.5 451.054 1293.52 451.054C1292.03 451.054 1291.11 451.719 1290.65 452.716H1290.52V451.182H1289.07V461H1290.57V455.094ZM1303.56 464.886C1305.91 464.886 1307.8 463.812 1307.8 461.281V451.182H1306.35V452.741H1306.19C1305.86 452.23 1305.25 451.054 1303.33 451.054C1300.85 451.054 1299.14 453.023 1299.14 456.04C1299.14 459.108 1300.93 460.847 1303.3 460.847C1305.22 460.847 1305.83 459.722 1306.17 459.185H1306.29V461.179C1306.29 462.815 1305.14 463.557 1303.56 463.557C1301.78 463.557 1301.15 462.617 1300.75 462.074L1299.54 462.918C1300.16 463.947 1301.37 464.886 1303.56 464.886ZM1303.51 459.491C1301.62 459.491 1300.64 458.06 1300.64 456.014C1300.64 454.02 1301.59 452.409 1303.51 452.409C1305.35 452.409 1306.32 453.892 1306.32 456.014C1306.32 458.188 1305.32 459.491 1303.51 459.491ZM1312.81 459.21H1311.18L1311.1 459.926C1310.92 461.658 1310.55 463.384 1310.39 464.196H1311.54C1311.84 463.327 1312.49 461.358 1312.71 459.901L1312.81 459.21ZM1320.67 464.682H1322.18V459.491H1322.31C1322.64 460.028 1323.28 461.205 1325.17 461.205C1327.63 461.205 1329.34 459.236 1329.34 456.116C1329.34 453.023 1327.63 451.054 1325.15 451.054C1323.23 451.054 1322.64 452.23 1322.31 452.741H1322.13V451.182H1320.67V464.682ZM1322.15 456.091C1322.15 453.892 1323.13 452.409 1324.97 452.409C1326.88 452.409 1327.83 454.02 1327.83 456.091C1327.83 458.188 1326.86 459.849 1324.97 459.849C1323.15 459.849 1322.15 458.315 1322.15 456.091ZM1335.63 461.205C1338.29 461.205 1340.08 459.185 1340.08 456.142C1340.08 453.074 1338.29 451.054 1335.63 451.054C1332.97 451.054 1331.18 453.074 1331.18 456.142C1331.18 459.185 1332.97 461.205 1335.63 461.205ZM1335.63 459.849C1333.61 459.849 1332.69 458.111 1332.69 456.142C1332.69 454.173 1333.61 452.409 1335.63 452.409C1337.65 452.409 1338.57 454.173 1338.57 456.142C1338.57 458.111 1337.65 459.849 1335.63 459.849ZM1342.38 461H1343.89V454.787C1343.89 453.457 1344.94 452.486 1346.37 452.486C1346.77 452.486 1347.19 452.562 1347.29 452.588V451.054C1347.12 451.041 1346.72 451.028 1346.5 451.028C1345.32 451.028 1344.3 451.693 1343.94 452.665H1343.84V451.182H1342.38V461ZM1353.96 451.182H1351.87V448.83H1350.36V451.182H1348.88V452.46H1350.36V458.597C1350.36 460.31 1351.74 461.128 1353.02 461.128C1353.58 461.128 1353.94 461.026 1354.14 460.949L1353.84 459.594C1353.71 459.619 1353.5 459.67 1353.17 459.67C1352.51 459.67 1351.87 459.466 1351.87 458.188V452.46H1353.96V451.182ZM1360.6 451.182H1358.41V450.185C1358.41 449.213 1358.81 448.702 1359.81 448.702C1360.25 448.702 1360.5 448.804 1360.66 448.855L1361.09 447.551C1360.86 447.449 1360.4 447.295 1359.66 447.295C1358.25 447.295 1356.9 448.139 1356.9 449.827V451.182H1355.31V452.46H1356.9V461H1358.41V452.46H1360.6V451.182ZM1366.3 461.205C1368.96 461.205 1370.75 459.185 1370.75 456.142C1370.75 453.074 1368.96 451.054 1366.3 451.054C1363.64 451.054 1361.85 453.074 1361.85 456.142C1361.85 459.185 1363.64 461.205 1366.3 461.205ZM1366.3 459.849C1364.28 459.849 1363.36 458.111 1363.36 456.142C1363.36 454.173 1364.28 452.409 1366.3 452.409C1368.32 452.409 1369.24 454.173 1369.24 456.142C1369.24 458.111 1368.32 459.849 1366.3 459.849ZM1374.56 447.909H1373.05V461H1374.56V447.909ZM1377.33 461H1378.83V451.182H1377.33V461ZM1378.09 449.545C1378.68 449.545 1379.17 449.085 1379.17 448.523C1379.17 447.96 1378.68 447.5 1378.09 447.5C1377.5 447.5 1377.02 447.96 1377.02 448.523C1377.02 449.085 1377.5 449.545 1378.09 449.545ZM1385.59 461.205C1388.25 461.205 1390.03 459.185 1390.03 456.142C1390.03 453.074 1388.25 451.054 1385.59 451.054C1382.93 451.054 1381.14 453.074 1381.14 456.142C1381.14 459.185 1382.93 461.205 1385.59 461.205ZM1385.59 459.849C1383.57 459.849 1382.65 458.111 1382.65 456.142C1382.65 454.173 1383.57 452.409 1385.59 452.409C1387.61 452.409 1388.53 454.173 1388.53 456.142C1388.53 458.111 1387.61 459.849 1385.59 459.849Z" fill="white"/>
<g clip-path="url(#clip0_10_2)">
<path d="M1248.37 290V287.102H1258.59V280.93C1250.39 280.113 1244.04 273.272 1244 264.938V264.934H1246.88C1246.89 269.331 1249.07 273.216 1252.41 275.581L1252.45 275.608C1254.52 277.153 1257.13 278.082 1259.96 278.082C1260.2 278.082 1260.43 278.075 1260.67 278.063L1260.63 278.064C1267.63 277.725 1273.18 272.004 1273.24 264.973V264.967H1276.14C1276.14 265 1276.14 265.039 1276.14 265.078C1276.14 269.228 1274.53 273.003 1271.91 275.815L1271.91 275.806C1269.31 278.656 1265.7 280.55 1261.65 280.926L1261.58 280.931V287.021H1271.83V289.968L1248.37 290Z" fill="#CCBA8D"/>
<path d="M1270.33 251.706V256.11H1263.04V259.024H1270.31V263.412H1263.06V266.359H1270.19C1269.47 271.369 1265.21 275.177 1260.06 275.177C1254.91 275.177 1250.64 271.369 1249.93 266.414L1249.93 266.359H1257.1V263.461H1249.86V259.057H1257.1V256.126H1249.86V251.755H1257.1V248.792H1249.96C1250.72 243.832 1254.96 240.078 1260.08 240.078C1265.19 240.078 1269.42 243.823 1270.19 248.718L1270.19 248.776H1263.04V251.707L1270.33 251.706Z" fill="#BDAE82"/>
</g>
<path d="M860.522 367H863.597V361.844H865.842L868.597 367H871.992L868.903 361.347C870.558 360.636 871.474 359.195 871.474 357.206C871.474 354.315 869.563 352.455 866.261 352.455H860.522V367ZM863.597 359.372V354.969H865.671C867.447 354.969 868.306 355.757 868.306 357.206C868.306 358.648 867.447 359.372 865.685 359.372H863.597ZM878.386 367.213C881.085 367.213 882.903 365.899 883.329 363.875L880.531 363.69C880.225 364.521 879.444 364.955 878.436 364.955C876.923 364.955 875.964 363.953 875.964 362.327V362.32H883.393V361.489C883.393 357.781 881.149 355.949 878.265 355.949C875.055 355.949 872.974 358.229 872.974 361.595C872.974 365.054 875.027 367.213 878.386 367.213ZM875.964 360.445C876.028 359.202 876.973 358.207 878.315 358.207C879.629 358.207 880.538 359.145 880.545 360.445H875.964ZM891.17 356.091H889.118V353.477H886.092V356.091H884.6V358.364H886.092V364.045C886.078 366.183 887.534 367.241 889.728 367.149C890.51 367.121 891.064 366.964 891.369 366.865L890.893 364.614C890.744 364.642 890.424 364.713 890.14 364.713C889.537 364.713 889.118 364.486 889.118 363.648V358.364H891.17V356.091ZM897.953 367.213C901.262 367.213 903.322 364.947 903.322 361.588C903.322 358.207 901.262 355.949 897.953 355.949C894.643 355.949 892.583 358.207 892.583 361.588C892.583 364.947 894.643 367.213 897.953 367.213ZM897.967 364.869C896.44 364.869 895.659 363.47 895.659 361.567C895.659 359.663 896.44 358.257 897.967 358.257C899.466 358.257 900.247 359.663 900.247 361.567C900.247 363.47 899.466 364.869 897.967 364.869ZM912.285 362.355C912.292 363.818 911.291 364.585 910.204 364.585C909.061 364.585 908.322 363.783 908.315 362.497V356.091H905.289V363.037C905.297 365.587 906.788 367.142 908.983 367.142C910.623 367.142 911.802 366.297 912.292 365.018H912.406V367H915.311V356.091H912.285V362.355ZM922.66 367.213C925.565 367.213 927.39 365.509 927.532 363.001H924.677C924.499 364.166 923.732 364.82 922.695 364.82C921.282 364.82 920.366 363.634 920.366 361.545C920.366 359.486 921.289 358.307 922.695 358.307C923.803 358.307 924.513 359.038 924.677 360.125H927.532C927.404 357.604 925.494 355.949 922.646 355.949C919.336 355.949 917.29 358.243 917.29 361.588C917.29 364.905 919.3 367.213 922.66 367.213ZM932.495 360.693C932.502 359.287 933.361 358.463 934.597 358.463C935.826 358.463 936.55 359.251 936.543 360.594V367H939.569V360.054C939.576 357.497 938.07 355.949 935.797 355.949C934.142 355.949 933.034 356.73 932.537 358.016H932.409V352.455H929.469V367H932.495V360.693Z" fill="white"/>
<path d="M781.416 411.909H779.83V425H781.416V411.909ZM796.407 417.381C795.934 415.987 794.872 415.054 792.929 415.054C790.858 415.054 789.324 416.23 789.324 417.892C789.324 419.247 790.13 420.155 791.932 420.577L793.568 420.96C794.559 421.19 795.026 421.663 795.026 422.341C795.026 423.185 794.131 423.875 792.725 423.875C791.491 423.875 790.718 423.344 790.449 422.29L789.017 422.648C789.369 424.316 790.743 425.205 792.75 425.205C795.032 425.205 796.585 423.958 796.585 422.264C796.585 420.896 795.729 420.033 793.978 419.605L792.52 419.247C791.357 418.96 790.833 418.57 790.833 417.815C790.833 416.972 791.728 416.358 792.929 416.358C794.246 416.358 794.789 417.087 795.051 417.764L796.407 417.381ZM803.126 415.182H801.03V412.83H799.521V415.182H798.038V416.46H799.521V422.597C799.521 424.31 800.902 425.128 802.18 425.128C802.743 425.128 803.101 425.026 803.305 424.949L802.998 423.594C802.87 423.619 802.666 423.67 802.334 423.67C801.669 423.67 801.03 423.466 801.03 422.188V416.46H803.126V415.182ZM805.395 425H806.904V418.787C806.904 417.457 807.952 416.486 809.384 416.486C809.787 416.486 810.202 416.562 810.304 416.588V415.054C810.132 415.041 809.736 415.028 809.512 415.028C808.336 415.028 807.313 415.693 806.955 416.665H806.853V415.182H805.395V425ZM812.093 425H813.601V415.182H812.093V425ZM812.86 413.545C813.448 413.545 813.934 413.085 813.934 412.523C813.934 411.96 813.448 411.5 812.86 411.5C812.272 411.5 811.786 411.96 811.786 412.523C811.786 413.085 812.272 413.545 812.86 413.545ZM824.392 415.182H822.756L820.046 423.006H819.944L817.233 415.182H815.597L819.228 425H820.762L824.392 415.182ZM830.149 425.205C832.143 425.205 833.6 424.207 834.06 422.724L832.603 422.315C832.22 423.338 831.331 423.849 830.149 423.849C828.378 423.849 827.157 422.705 827.087 420.602H834.214V419.963C834.214 416.307 832.041 415.054 829.995 415.054C827.336 415.054 825.572 417.151 825.572 420.168C825.572 423.185 827.31 425.205 830.149 425.205ZM827.087 419.298C827.189 417.771 828.269 416.409 829.995 416.409C831.631 416.409 832.68 417.636 832.68 419.298H827.087ZM845.841 415.182H843.744V412.83H842.236V415.182H840.753V416.46H842.236V422.597C842.236 424.31 843.617 425.128 844.895 425.128C845.457 425.128 845.815 425.026 846.02 424.949L845.713 423.594C845.585 423.619 845.381 423.67 845.048 423.67C844.384 423.67 843.744 423.466 843.744 422.188V416.46H845.841V415.182ZM851.993 425.205C854.652 425.205 856.442 423.185 856.442 420.142C856.442 417.074 854.652 415.054 851.993 415.054C849.334 415.054 847.544 417.074 847.544 420.142C847.544 423.185 849.334 425.205 851.993 425.205ZM851.993 423.849C849.973 423.849 849.053 422.111 849.053 420.142C849.053 418.173 849.973 416.409 851.993 416.409C854.013 416.409 854.934 418.173 854.934 420.142C854.934 422.111 854.013 423.849 851.993 423.849ZM863.807 425H865.316V418.864C865.316 417.425 866.364 416.409 867.54 416.409C868.685 416.409 869.484 417.157 869.484 418.276V425H871.018V418.608C871.018 417.342 871.81 416.409 873.191 416.409C874.265 416.409 875.185 416.978 875.185 418.429V425H876.694V418.429C876.694 416.121 875.454 415.054 873.702 415.054C872.296 415.054 871.267 415.7 870.762 416.716H870.66C870.174 415.668 869.317 415.054 868.026 415.054C866.748 415.054 865.802 415.668 865.393 416.716H865.265V415.182H863.807V425ZM882.341 425.23C884.054 425.23 884.949 424.31 885.256 423.67H885.333V425H886.841V418.531C886.841 415.412 884.463 415.054 883.21 415.054C881.728 415.054 880.04 415.565 879.273 417.355L880.705 417.866C881.037 417.151 881.823 416.384 883.262 416.384C884.649 416.384 885.333 417.119 885.333 418.378V418.429C885.333 419.158 884.591 419.094 882.801 419.324C880.98 419.56 878.992 419.963 878.992 422.213C878.992 424.131 880.475 425.23 882.341 425.23ZM882.571 423.875C881.37 423.875 880.5 423.338 880.5 422.29C880.5 421.139 881.549 420.781 882.725 420.628C883.364 420.551 885.077 420.372 885.333 420.065V421.446C885.333 422.673 884.361 423.875 882.571 423.875ZM889.595 425H891.103V421.325L892.158 420.347L895.833 425H897.751L893.296 419.375L897.444 415.182H895.578L891.282 419.554H891.103V411.909H889.595V425ZM903.098 425.205C905.092 425.205 906.549 424.207 907.01 422.724L905.552 422.315C905.169 423.338 904.28 423.849 903.098 423.849C901.327 423.849 900.106 422.705 900.036 420.602H907.163V419.963C907.163 416.307 904.99 415.054 902.944 415.054C900.285 415.054 898.521 417.151 898.521 420.168C898.521 423.185 900.26 425.205 903.098 425.205ZM900.036 419.298C900.138 417.771 901.218 416.409 902.944 416.409C904.581 416.409 905.629 417.636 905.629 419.298H900.036ZM914.52 428.682H916.029V423.491H916.157C916.489 424.028 917.128 425.205 919.02 425.205C921.475 425.205 923.188 423.236 923.188 420.116C923.188 417.023 921.475 415.054 918.995 415.054C917.077 415.054 916.489 416.23 916.157 416.741H915.978V415.182H914.52V428.682ZM916.003 420.091C916.003 417.892 916.975 416.409 918.816 416.409C920.733 416.409 921.679 418.02 921.679 420.091C921.679 422.188 920.708 423.849 918.816 423.849C917 423.849 916.003 422.315 916.003 420.091ZM926.998 419.094C926.998 417.381 928.091 416.409 929.58 416.409C930.999 416.409 931.856 417.304 931.856 418.864V425H933.364V418.761C933.364 416.237 932.022 415.054 930.015 415.054C928.468 415.054 927.586 415.7 927.125 416.716H926.998V411.909H925.489V425H926.998V419.094ZM940.112 425.205C942.772 425.205 944.561 423.185 944.561 420.142C944.561 417.074 942.772 415.054 940.112 415.054C937.453 415.054 935.664 417.074 935.664 420.142C935.664 423.185 937.453 425.205 940.112 425.205ZM940.112 423.849C938.093 423.849 937.172 422.111 937.172 420.142C937.172 418.173 938.093 416.409 940.112 416.409C942.132 416.409 943.053 418.173 943.053 420.142C943.053 422.111 942.132 423.849 940.112 423.849ZM951.134 415.182H949.037V412.83H947.529V415.182H946.046V416.46H947.529V422.597C947.529 424.31 948.91 425.128 950.188 425.128C950.75 425.128 951.108 425.026 951.313 424.949L951.006 423.594C950.878 423.619 950.674 423.67 950.341 423.67C949.677 423.67 949.037 423.466 949.037 422.188V416.46H951.134V415.182ZM957.286 425.205C959.945 425.205 961.735 423.185 961.735 420.142C961.735 417.074 959.945 415.054 957.286 415.054C954.627 415.054 952.837 417.074 952.837 420.142C952.837 423.185 954.627 425.205 957.286 425.205ZM957.286 423.849C955.266 423.849 954.346 422.111 954.346 420.142C954.346 418.173 955.266 416.409 957.286 416.409C959.306 416.409 960.227 418.173 960.227 420.142C960.227 422.111 959.306 423.849 957.286 423.849ZM968.001 428.886C970.353 428.886 972.245 427.812 972.245 425.281V415.182H970.788V416.741H970.634C970.302 416.23 969.688 415.054 967.771 415.054C965.291 415.054 963.578 417.023 963.578 420.04C963.578 423.108 965.367 424.847 967.745 424.847C969.663 424.847 970.277 423.722 970.609 423.185H970.737V425.179C970.737 426.815 969.586 427.557 968.001 427.557C966.218 427.557 965.591 426.617 965.188 426.074L963.987 426.918C964.6 427.947 965.809 428.886 968.001 428.886ZM967.95 423.491C966.058 423.491 965.086 422.06 965.086 420.014C965.086 418.02 966.032 416.409 967.95 416.409C969.791 416.409 970.762 417.892 970.762 420.014C970.762 422.188 969.765 423.491 967.95 423.491ZM975.007 425H976.515V418.787C976.515 417.457 977.563 416.486 978.995 416.486C979.398 416.486 979.813 416.562 979.916 416.588V415.054C979.743 415.041 979.347 415.028 979.123 415.028C977.947 415.028 976.924 415.693 976.566 416.665H976.464V415.182H975.007V425ZM984.593 425.23C986.306 425.23 987.201 424.31 987.508 423.67H987.585V425H989.093V418.531C989.093 415.412 986.715 415.054 985.462 415.054C983.979 415.054 982.292 415.565 981.525 417.355L982.957 417.866C983.289 417.151 984.075 416.384 985.514 416.384C986.901 416.384 987.585 417.119 987.585 418.378V418.429C987.585 419.158 986.843 419.094 985.053 419.324C983.232 419.56 981.244 419.963 981.244 422.213C981.244 424.131 982.727 425.23 984.593 425.23ZM984.823 423.875C983.622 423.875 982.752 423.338 982.752 422.29C982.752 421.139 983.801 420.781 984.977 420.628C985.616 420.551 987.329 420.372 987.585 420.065V421.446C987.585 422.673 986.613 423.875 984.823 423.875ZM991.847 428.682H993.355V423.491H993.483C993.815 424.028 994.454 425.205 996.347 425.205C998.801 425.205 1000.51 423.236 1000.51 420.116C1000.51 417.023 998.801 415.054 996.321 415.054C994.403 415.054 993.815 416.23 993.483 416.741H993.304V415.182H991.847V428.682ZM993.329 420.091C993.329 417.892 994.301 416.409 996.142 416.409C998.06 416.409 999.006 418.02 999.006 420.091C999.006 422.188 998.034 423.849 996.142 423.849C994.327 423.849 993.329 422.315 993.329 420.091ZM1004.32 419.094C1004.32 417.381 1005.42 416.409 1006.91 416.409C1008.33 416.409 1009.18 417.304 1009.18 418.864V425H1010.69V418.761C1010.69 416.237 1009.35 415.054 1007.34 415.054C1005.79 415.054 1004.91 415.7 1004.45 416.716H1004.32V411.909H1002.82V425H1004.32V419.094ZM1014.07 428.682C1015.43 428.682 1016.39 427.96 1016.96 426.432L1021.14 415.207L1019.49 415.182L1016.78 423.006H1016.68L1013.97 415.182H1012.33L1015.96 425.051L1015.68 425.818C1015.13 427.314 1014.45 427.455 1013.35 427.173L1012.97 428.503C1013.12 428.58 1013.56 428.682 1014.07 428.682ZM846.495 453.381C846.022 451.987 844.961 451.054 843.018 451.054C840.947 451.054 839.413 452.23 839.413 453.892C839.413 455.247 840.218 456.155 842.021 456.577L843.657 456.96C844.648 457.19 845.115 457.663 845.115 458.341C845.115 459.185 844.22 459.875 842.814 459.875C841.58 459.875 840.806 459.344 840.538 458.29L839.106 458.648C839.458 460.316 840.832 461.205 842.839 461.205C845.121 461.205 846.674 459.958 846.674 458.264C846.674 456.896 845.818 456.033 844.066 455.605L842.609 455.247C841.446 454.96 840.922 454.57 840.922 453.815C840.922 452.972 841.816 452.358 843.018 452.358C844.335 452.358 844.878 453.087 845.14 453.764L846.495 453.381ZM855.133 456.986C855.133 458.827 853.726 459.67 852.601 459.67C851.349 459.67 850.454 458.75 850.454 457.318V451.182H848.945V457.42C848.945 459.926 850.275 461.128 852.116 461.128C853.599 461.128 854.57 460.335 855.03 459.338H855.133V461H856.641V451.182H855.133V456.986ZM859.404 461H860.913V454.787C860.913 453.457 861.961 452.486 863.393 452.486C863.795 452.486 864.211 452.562 864.313 452.588V451.054C864.141 451.041 863.744 451.028 863.521 451.028C862.344 451.028 861.322 451.693 860.964 452.665H860.862V451.182H859.404V461ZM866.101 464.682H867.61V459.491H867.738C868.07 460.028 868.709 461.205 870.601 461.205C873.056 461.205 874.769 459.236 874.769 456.116C874.769 453.023 873.056 451.054 870.576 451.054C868.658 451.054 868.07 452.23 867.738 452.741H867.559V451.182H866.101V464.682ZM867.584 456.091C867.584 453.892 868.556 452.409 870.397 452.409C872.314 452.409 873.26 454.02 873.26 456.091C873.26 458.188 872.289 459.849 870.397 459.849C868.581 459.849 867.584 458.315 867.584 456.091ZM879.959 461.23C881.672 461.23 882.567 460.31 882.874 459.67H882.951V461H884.459V454.531C884.459 451.412 882.081 451.054 880.829 451.054C879.346 451.054 877.658 451.565 876.891 453.355L878.323 453.866C878.655 453.151 879.442 452.384 880.88 452.384C882.267 452.384 882.951 453.119 882.951 454.378V454.429C882.951 455.158 882.209 455.094 880.42 455.324C878.598 455.56 876.61 455.963 876.61 458.213C876.61 460.131 878.093 461.23 879.959 461.23ZM880.189 459.875C878.988 459.875 878.118 459.338 878.118 458.29C878.118 457.139 879.167 456.781 880.343 456.628C880.982 456.551 882.695 456.372 882.951 456.065V457.446C882.951 458.673 881.979 459.875 880.189 459.875ZM894.167 453.381C893.694 451.987 892.633 451.054 890.69 451.054C888.619 451.054 887.085 452.23 887.085 453.892C887.085 455.247 887.89 456.155 889.693 456.577L891.329 456.96C892.32 457.19 892.787 457.663 892.787 458.341C892.787 459.185 891.892 459.875 890.485 459.875C889.252 459.875 888.478 459.344 888.21 458.29L886.778 458.648C887.13 460.316 888.504 461.205 890.511 461.205C892.793 461.205 894.346 459.958 894.346 458.264C894.346 456.896 893.49 456.033 891.738 455.605L890.281 455.247C889.118 454.96 888.593 454.57 888.593 453.815C888.593 452.972 889.488 452.358 890.69 452.358C892.007 452.358 892.55 453.087 892.812 453.764L894.167 453.381ZM903.572 453.381C903.099 451.987 902.037 451.054 900.094 451.054C898.023 451.054 896.489 452.23 896.489 453.892C896.489 455.247 897.295 456.155 899.097 456.577L900.733 456.96C901.724 457.19 902.191 457.663 902.191 458.341C902.191 459.185 901.296 459.875 899.89 459.875C898.656 459.875 897.883 459.344 897.614 458.29L896.182 458.648C896.534 460.316 897.908 461.205 899.915 461.205C902.197 461.205 903.751 459.958 903.751 458.264C903.751 456.896 902.894 456.033 901.143 455.605L899.685 455.247C898.522 454.96 897.998 454.57 897.998 453.815C897.998 452.972 898.893 452.358 900.094 452.358C901.411 452.358 901.954 453.087 902.216 453.764L903.572 453.381ZM911.084 461H912.592V454.787C912.592 453.457 913.641 452.486 915.072 452.486C915.475 452.486 915.891 452.562 915.993 452.588V451.054C915.82 451.041 915.424 451.028 915.2 451.028C914.024 451.028 913.001 451.693 912.643 452.665H912.541V451.182H911.084V461ZM921.599 461.205C923.593 461.205 925.05 460.207 925.511 458.724L924.053 458.315C923.67 459.338 922.781 459.849 921.599 459.849C919.828 459.849 918.607 458.705 918.537 456.602H925.664V455.963C925.664 452.307 923.491 451.054 921.445 451.054C918.786 451.054 917.022 453.151 917.022 456.168C917.022 459.185 918.761 461.205 921.599 461.205ZM918.537 455.298C918.639 453.771 919.719 452.409 921.445 452.409C923.082 452.409 924.13 453.636 924.13 455.298H918.537ZM930.848 461.23C932.561 461.23 933.456 460.31 933.763 459.67H933.839V461H935.348V454.531C935.348 451.412 932.97 451.054 931.717 451.054C930.234 451.054 928.547 451.565 927.78 453.355L929.212 453.866C929.544 453.151 930.33 452.384 931.768 452.384C933.156 452.384 933.839 453.119 933.839 454.378V454.429C933.839 455.158 933.098 455.094 931.308 455.324C929.487 455.56 927.499 455.963 927.499 458.213C927.499 460.131 928.982 461.23 930.848 461.23ZM931.078 459.875C929.876 459.875 929.007 459.338 929.007 458.29C929.007 457.139 930.055 456.781 931.232 456.628C931.871 456.551 933.584 456.372 933.839 456.065V457.446C933.839 458.673 932.868 459.875 931.078 459.875ZM939.61 447.909H938.101V461H939.61V447.909ZM942.373 461H943.881V451.182H942.373V461ZM943.14 449.545C943.728 449.545 944.214 449.085 944.214 448.523C944.214 447.96 943.728 447.5 943.14 447.5C942.552 447.5 942.066 447.96 942.066 448.523C942.066 449.085 942.552 449.545 943.14 449.545ZM950.914 451.182H948.818V448.83H947.309V451.182H945.826V452.46H947.309V458.597C947.309 460.31 948.69 461.128 949.968 461.128C950.531 461.128 950.889 461.026 951.093 460.949L950.786 459.594C950.659 459.619 950.454 459.67 950.122 459.67C949.457 459.67 948.818 459.466 948.818 458.188V452.46H950.914V451.182ZM954.155 464.682C955.517 464.682 956.475 463.96 957.044 462.432L961.225 451.207L959.575 451.182L956.865 459.006H956.763L954.053 451.182H952.416L956.047 461.051L955.766 461.818C955.216 463.314 954.539 463.455 953.439 463.173L953.056 464.503C953.209 464.58 953.644 464.682 954.155 464.682Z" fill="white"/>
<g clip-path="url(#clip1_10_2)">
<path d="M867 288.503V241.497C867.362 240.609 868.22 239.994 869.22 239.994C869.28 239.994 869.34 239.996 869.399 240.001H869.391H930.727C930.784 239.996 930.851 239.993 930.918 239.993C932.158 239.993 933.163 240.998 933.163 242.238C933.163 242.305 933.16 242.372 933.154 242.437L933.155 242.429C933.155 251.903 933.155 261.378 933.155 270.834C933.155 276.475 933.155 282.115 933.155 287.756C933.163 287.822 933.167 287.899 933.167 287.977C933.167 289.076 932.276 289.967 931.177 289.967C931.147 289.967 931.117 289.966 931.087 289.965H931.091H869.645C869.543 289.979 869.426 289.988 869.306 289.988C868.287 289.988 867.408 289.387 867.005 288.521L866.998 288.505L867 288.503ZM929.066 244.144H871.125V272.092L871.764 271.654L882.991 263.604C883.388 263.206 883.936 262.96 884.543 262.96C885.15 262.96 885.698 263.206 886.095 263.604L897.888 272.056C899.713 273.37 901.539 274.685 903.364 275.963C903.696 276.219 904.117 276.374 904.575 276.374C905.476 276.374 906.237 275.776 906.482 274.955L906.486 274.941C906.537 274.771 906.566 274.576 906.566 274.373C906.566 273.6 906.141 272.926 905.511 272.573L905.501 272.568C902.958 270.779 900.469 268.984 898.035 267.183L897.469 266.763L897.798 266.507L907.966 259.205C908.363 258.807 908.911 258.561 909.518 258.561C910.125 258.561 910.673 258.807 911.07 259.205L928.412 271.655L929.051 272.075L929.066 244.144Z" fill="#BDAE82"/>
<path d="M893.962 249.346C896.987 249.346 899.438 251.798 899.438 254.822C899.484 255.09 899.511 255.399 899.511 255.713C899.511 258.738 897.059 261.189 894.035 261.189C891.011 261.189 888.559 258.737 888.559 255.713C888.559 255.398 888.586 255.09 888.637 254.789L888.632 254.821C888.632 254.82 888.632 254.82 888.632 254.819C888.632 251.846 891.001 249.426 893.955 249.345H893.963L893.962 249.346Z" fill="#CCBA8D"/>
</g>
<path d="M469.624 352.455H466.208L471.23 367H475.193L480.207 352.455H476.798L473.275 363.506H473.14L469.624 352.455ZM481.901 367H484.926V356.091H481.901V367ZM483.421 354.685C484.323 354.685 485.061 353.996 485.061 353.151C485.061 352.312 484.323 351.624 483.421 351.624C482.526 351.624 481.787 352.312 481.787 353.151C481.787 353.996 482.526 354.685 483.421 354.685ZM491.37 367.178C493.131 367.178 494.047 366.162 494.466 365.253H494.594V367H497.577V352.455H494.559V357.923H494.466C494.062 357.036 493.188 355.949 491.363 355.949C488.969 355.949 486.945 357.81 486.945 361.56C486.945 365.21 488.884 367.178 491.37 367.178ZM492.329 364.77C490.844 364.77 490.035 363.449 490.035 361.545C490.035 359.656 490.83 358.357 492.329 358.357C493.799 358.357 494.623 359.599 494.623 361.545C494.623 363.491 493.785 364.77 492.329 364.77ZM505.036 367.213C507.735 367.213 509.553 365.899 509.98 363.875L507.181 363.69C506.876 364.521 506.095 364.955 505.086 364.955C503.573 364.955 502.615 363.953 502.615 362.327V362.32H510.044V361.489C510.044 357.781 507.799 355.949 504.916 355.949C501.705 355.949 499.624 358.229 499.624 361.595C499.624 365.054 501.677 367.213 505.036 367.213ZM502.615 360.445C502.678 359.202 503.623 358.207 504.965 358.207C506.279 358.207 507.188 359.145 507.195 360.445H502.615ZM516.947 367.213C520.257 367.213 522.316 364.947 522.316 361.588C522.316 358.207 520.257 355.949 516.947 355.949C513.637 355.949 511.578 358.207 511.578 361.588C511.578 364.947 513.637 367.213 516.947 367.213ZM516.961 364.869C515.434 364.869 514.653 363.47 514.653 361.567C514.653 359.663 515.434 358.257 516.961 358.257C518.46 358.257 519.241 359.663 519.241 361.567C519.241 363.47 518.46 364.869 516.961 364.869ZM537.989 359.202C537.719 357.192 536.1 355.949 533.344 355.949C530.553 355.949 528.714 357.241 528.721 359.344C528.714 360.977 529.743 362.036 531.874 362.462L533.763 362.838C534.715 363.03 535.148 363.378 535.162 363.925C535.148 364.571 534.445 365.033 533.387 365.033C532.307 365.033 531.59 364.571 531.405 363.683L528.43 363.839C528.714 365.928 530.489 367.213 533.38 367.213C536.206 367.213 538.231 365.771 538.238 363.619C538.231 362.043 537.201 361.098 535.084 360.665L533.11 360.267C532.094 360.047 531.718 359.699 531.725 359.173C531.718 358.52 532.456 358.094 533.394 358.094C534.445 358.094 535.07 358.669 535.219 359.372L537.989 359.202ZM543.169 360.693C543.176 359.287 544.035 358.463 545.271 358.463C546.499 358.463 547.224 359.251 547.217 360.594V367H550.242V360.054C550.249 357.497 548.744 355.949 546.471 355.949C544.816 355.949 543.708 356.73 543.211 358.016H543.083V352.455H540.143V367H543.169V360.693ZM557.552 367.213C560.862 367.213 562.922 364.947 562.922 361.588C562.922 358.207 560.862 355.949 557.552 355.949C554.243 355.949 552.183 358.207 552.183 361.588C552.183 364.947 554.243 367.213 557.552 367.213ZM557.567 364.869C556.04 364.869 555.258 363.47 555.258 361.567C555.258 359.663 556.04 358.257 557.567 358.257C559.065 358.257 559.846 359.663 559.846 361.567C559.846 363.47 559.065 364.869 557.567 364.869ZM569.818 367.213C573.128 367.213 575.187 364.947 575.187 361.588C575.187 358.207 573.128 355.949 569.818 355.949C566.508 355.949 564.449 358.207 564.449 361.588C564.449 364.947 566.508 367.213 569.818 367.213ZM569.832 364.869C568.305 364.869 567.524 363.47 567.524 361.567C567.524 359.663 568.305 358.257 569.832 358.257C571.331 358.257 572.112 359.663 572.112 361.567C572.112 363.47 571.331 364.869 569.832 364.869ZM582.957 356.091H580.905V353.477H577.879V356.091H576.388V358.364H577.879V364.045C577.865 366.183 579.321 367.241 581.515 367.149C582.297 367.121 582.851 366.964 583.156 366.865L582.68 364.614C582.531 364.642 582.211 364.713 581.927 364.713C581.324 364.713 580.905 364.486 580.905 363.648V358.364H582.957V356.091ZM584.928 367H587.954V356.091H584.928V367ZM586.448 354.685C587.35 354.685 588.089 353.996 588.089 353.151C588.089 352.312 587.35 351.624 586.448 351.624C585.553 351.624 584.814 352.312 584.814 353.151C584.814 353.996 585.553 354.685 586.448 354.685ZM593.403 360.693C593.41 359.287 594.248 358.463 595.47 358.463C596.684 358.463 597.416 359.259 597.409 360.594V367H600.434V360.054C600.434 357.511 598.943 355.949 596.67 355.949C595.051 355.949 593.879 356.744 593.389 358.016H593.261V356.091H590.377V367H593.403V360.693ZM607.733 371.318C610.851 371.318 613.067 369.898 613.067 367.107V356.091H610.063V357.923H609.949C609.545 357.036 608.657 355.949 606.831 355.949C604.438 355.949 602.414 357.81 602.414 361.524C602.414 365.153 604.381 366.844 606.839 366.844C608.579 366.844 609.552 365.97 609.949 365.068H610.077V367.064C610.077 368.562 609.118 369.145 607.805 369.145C606.469 369.145 605.795 368.562 605.546 367.902L602.748 368.278C603.11 369.997 604.793 371.318 607.733 371.318ZM607.797 364.571C606.313 364.571 605.503 363.392 605.503 361.51C605.503 359.656 606.299 358.357 607.797 358.357C609.268 358.357 610.091 359.599 610.091 361.51C610.091 363.435 609.253 364.571 607.797 364.571Z" fill="white"/>
<path d="M422.656 416C422.171 413.315 420.023 411.73 417.389 411.73C414.04 411.73 411.611 414.312 411.611 418.455C411.611 422.597 414.04 425.179 417.389 425.179C420.023 425.179 422.171 423.594 422.656 420.909H421.071C420.688 422.724 419.128 423.696 417.389 423.696C415.012 423.696 413.145 421.855 413.145 418.455C413.145 415.054 415.012 413.213 417.389 413.213C419.128 413.213 420.688 414.185 421.071 416H422.656ZM427.903 425.23C429.616 425.23 430.511 424.31 430.817 423.67H430.894V425H432.403V418.531C432.403 415.412 430.025 415.054 428.772 415.054C427.289 415.054 425.602 415.565 424.835 417.355L426.266 417.866C426.599 417.151 427.385 416.384 428.823 416.384C430.21 416.384 430.894 417.119 430.894 418.378V418.429C430.894 419.158 430.153 419.094 428.363 419.324C426.541 419.56 424.553 419.963 424.553 422.213C424.553 424.131 426.036 425.23 427.903 425.23ZM428.133 423.875C426.931 423.875 426.062 423.338 426.062 422.29C426.062 421.139 427.11 420.781 428.286 420.628C428.925 420.551 430.638 420.372 430.894 420.065V421.446C430.894 422.673 429.923 423.875 428.133 423.875ZM435.156 428.682H436.665V423.491H436.792C437.125 424.028 437.764 425.205 439.656 425.205C442.111 425.205 443.824 423.236 443.824 420.116C443.824 417.023 442.111 415.054 439.631 415.054C437.713 415.054 437.125 416.23 436.792 416.741H436.613V415.182H435.156V428.682ZM436.639 420.091C436.639 417.892 437.611 416.409 439.452 416.409C441.369 416.409 442.315 418.02 442.315 420.091C442.315 422.188 441.344 423.849 439.452 423.849C437.636 423.849 436.639 422.315 436.639 420.091ZM450.395 415.182H448.298V412.83H446.79V415.182H445.307V416.46H446.79V422.597C446.79 424.31 448.17 425.128 449.449 425.128C450.011 425.128 450.369 425.026 450.574 424.949L450.267 423.594C450.139 423.619 449.934 423.67 449.602 423.67C448.937 423.67 448.298 423.466 448.298 422.188V416.46H450.395V415.182ZM458.851 420.986C458.851 422.827 457.445 423.67 456.32 423.67C455.067 423.67 454.172 422.75 454.172 421.318V415.182H452.664V421.42C452.664 423.926 453.993 425.128 455.834 425.128C457.317 425.128 458.289 424.335 458.749 423.338H458.851V425H460.36V415.182H458.851V420.986ZM463.123 425H464.631V418.787C464.631 417.457 465.68 416.486 467.112 416.486C467.514 416.486 467.93 416.562 468.032 416.588V415.054C467.859 415.041 467.463 415.028 467.239 415.028C466.063 415.028 465.04 415.693 464.683 416.665H464.58V415.182H463.123V425ZM473.638 425.205C475.632 425.205 477.089 424.207 477.55 422.724L476.092 422.315C475.709 423.338 474.82 423.849 473.638 423.849C471.867 423.849 470.646 422.705 470.576 420.602H477.703V419.963C477.703 416.307 475.53 415.054 473.484 415.054C470.825 415.054 469.061 417.151 469.061 420.168C469.061 423.185 470.8 425.205 473.638 425.205ZM470.576 419.298C470.678 417.771 471.759 416.409 473.484 416.409C475.121 416.409 476.169 417.636 476.169 419.298H470.576ZM486.032 428.682C487.393 428.682 488.352 427.96 488.921 426.432L493.102 415.207L491.452 415.182L488.742 423.006H488.64L485.93 415.182H484.293L487.924 425.051L487.643 425.818C487.093 427.314 486.415 427.455 485.316 427.173L484.933 428.503C485.086 428.58 485.521 428.682 486.032 428.682ZM498.735 425.205C501.394 425.205 503.183 423.185 503.183 420.142C503.183 417.074 501.394 415.054 498.735 415.054C496.075 415.054 494.286 417.074 494.286 420.142C494.286 423.185 496.075 425.205 498.735 425.205ZM498.735 423.849C496.715 423.849 495.794 422.111 495.794 420.142C495.794 418.173 496.715 416.409 498.735 416.409C500.754 416.409 501.675 418.173 501.675 420.142C501.675 422.111 500.754 423.849 498.735 423.849ZM511.674 420.986C511.674 422.827 510.267 423.67 509.142 423.67C507.89 423.67 506.995 422.75 506.995 421.318V415.182H505.486V421.42C505.486 423.926 506.816 425.128 508.657 425.128C510.14 425.128 511.111 424.335 511.571 423.338H511.674V425H513.182V415.182H511.674V420.986ZM515.945 425H517.454V418.787C517.454 417.457 518.502 416.486 519.934 416.486C520.336 416.486 520.752 416.562 520.854 416.588V415.054C520.682 415.041 520.285 415.028 520.062 415.028C518.885 415.028 517.863 415.693 517.505 416.665H517.403V415.182H515.945V425ZM527.705 425H529.213V418.864C529.213 417.425 530.262 416.409 531.438 416.409C532.582 416.409 533.381 417.157 533.381 418.276V425H534.915V418.608C534.915 417.342 535.708 416.409 537.088 416.409C538.162 416.409 539.083 416.978 539.083 418.429V425H540.591V418.429C540.591 416.121 539.351 415.054 537.6 415.054C536.194 415.054 535.164 415.7 534.659 416.716H534.557C534.071 415.668 533.215 415.054 531.924 415.054C530.645 415.054 529.699 415.668 529.29 416.716H529.162V415.182H527.705V425ZM547.338 425.205C549.997 425.205 551.787 423.185 551.787 420.142C551.787 417.074 549.997 415.054 547.338 415.054C544.679 415.054 542.889 417.074 542.889 420.142C542.889 423.185 544.679 425.205 547.338 425.205ZM547.338 423.849C545.318 423.849 544.398 422.111 544.398 420.142C544.398 418.173 545.318 416.409 547.338 416.409C549.358 416.409 550.278 418.173 550.278 420.142C550.278 422.111 549.358 423.849 547.338 423.849ZM554.09 425H555.598V418.864C555.598 417.425 556.646 416.409 557.823 416.409C558.967 416.409 559.766 417.157 559.766 418.276V425H561.3V418.608C561.3 417.342 562.093 416.409 563.473 416.409C564.547 416.409 565.468 416.978 565.468 418.429V425H566.976V418.429C566.976 416.121 565.736 415.054 563.985 415.054C562.578 415.054 561.549 415.7 561.044 416.716H560.942C560.456 415.668 559.6 415.054 558.308 415.054C557.03 415.054 556.084 415.668 555.675 416.716H555.547V415.182H554.09V425ZM573.851 425.205C575.845 425.205 577.302 424.207 577.763 422.724L576.305 422.315C575.922 423.338 575.033 423.849 573.851 423.849C572.08 423.849 570.859 422.705 570.789 420.602H577.916V419.963C577.916 416.307 575.743 415.054 573.697 415.054C571.038 415.054 569.274 417.151 569.274 420.168C569.274 423.185 571.013 425.205 573.851 425.205ZM570.789 419.298C570.891 417.771 571.971 416.409 573.697 416.409C575.334 416.409 576.382 417.636 576.382 419.298H570.789ZM581.719 419.094C581.719 417.381 582.78 416.409 584.225 416.409C585.625 416.409 586.475 417.323 586.475 418.864V425H587.983V418.761C587.983 416.256 586.648 415.054 584.66 415.054C583.177 415.054 582.256 415.719 581.796 416.716H581.668V415.182H580.211V425H581.719V419.094ZM595.01 415.182H592.913V412.83H591.405V415.182H589.922V416.46H591.405V422.597C591.405 424.31 592.786 425.128 594.064 425.128C594.626 425.128 594.984 425.026 595.189 424.949L594.882 423.594C594.754 423.619 594.55 423.67 594.217 423.67C593.553 423.67 592.913 423.466 592.913 422.188V416.46H595.01V415.182ZM604.058 417.381C603.585 415.987 602.524 415.054 600.581 415.054C598.51 415.054 596.975 416.23 596.975 417.892C596.975 419.247 597.781 420.155 599.583 420.577L601.22 420.96C602.211 421.19 602.677 421.663 602.677 422.341C602.677 423.185 601.782 423.875 600.376 423.875C599.142 423.875 598.369 423.344 598.1 422.29L596.669 422.648C597.02 424.316 598.395 425.205 600.402 425.205C602.684 425.205 604.237 423.958 604.237 422.264C604.237 420.896 603.38 420.033 601.629 419.605L600.172 419.247C599.008 418.96 598.484 418.57 598.484 417.815C598.484 416.972 599.379 416.358 600.581 416.358C601.897 416.358 602.441 417.087 602.703 417.764L604.058 417.381ZM618.525 417.381C618.052 415.987 616.991 415.054 615.047 415.054C612.976 415.054 611.442 416.23 611.442 417.892C611.442 419.247 612.248 420.155 614.05 420.577L615.687 420.96C616.677 421.19 617.144 421.663 617.144 422.341C617.144 423.185 616.249 423.875 614.843 423.875C613.609 423.875 612.836 423.344 612.567 422.29L611.135 422.648C611.487 424.316 612.861 425.205 614.868 425.205C617.15 425.205 618.704 423.958 618.704 422.264C618.704 420.896 617.847 420.033 616.096 419.605L614.638 419.247C613.475 418.96 612.951 418.57 612.951 417.815C612.951 416.972 613.846 416.358 615.047 416.358C616.364 416.358 616.907 417.087 617.17 417.764L618.525 417.381ZM624.963 425.205C627.622 425.205 629.412 423.185 629.412 420.142C629.412 417.074 627.622 415.054 624.963 415.054C622.304 415.054 620.514 417.074 620.514 420.142C620.514 423.185 622.304 425.205 624.963 425.205ZM624.963 423.849C622.943 423.849 622.023 422.111 622.023 420.142C622.023 418.173 622.943 416.409 624.963 416.409C626.983 416.409 627.903 418.173 627.903 420.142C627.903 422.111 626.983 423.849 624.963 423.849ZM641.047 415.182H638.95V412.83H637.442V415.182H635.959V416.46H637.442V422.597C637.442 424.31 638.823 425.128 640.101 425.128C640.664 425.128 641.021 425.026 641.226 424.949L640.919 423.594C640.791 423.619 640.587 423.67 640.254 423.67C639.59 423.67 638.95 423.466 638.95 422.188V416.46H641.047V415.182ZM645.036 419.094C645.036 417.381 646.129 416.409 647.618 416.409C649.037 416.409 649.894 417.304 649.894 418.864V425H651.402V418.761C651.402 416.237 650.06 415.054 648.053 415.054C646.506 415.054 645.624 415.7 645.164 416.716H645.036V411.909H643.527V425H645.036V419.094ZM657.051 425.23C658.764 425.23 659.659 424.31 659.966 423.67H660.043V425H661.551V418.531C661.551 415.412 659.173 415.054 657.92 415.054C656.438 415.054 654.75 415.565 653.983 417.355L655.415 417.866C655.747 417.151 656.533 416.384 657.972 416.384C659.359 416.384 660.043 417.119 660.043 418.378V418.429C660.043 419.158 659.301 419.094 657.511 419.324C655.69 419.56 653.702 419.963 653.702 422.213C653.702 424.131 655.185 425.23 657.051 425.23ZM657.281 423.875C656.08 423.875 655.21 423.338 655.21 422.29C655.21 421.139 656.259 420.781 657.435 420.628C658.074 420.551 659.787 420.372 660.043 420.065V421.446C660.043 422.673 659.071 423.875 657.281 423.875ZM668.574 415.182H666.478V412.83H664.969V415.182H663.486V416.46H664.969V422.597C664.969 424.31 666.35 425.128 667.628 425.128C668.191 425.128 668.549 425.026 668.753 424.949L668.447 423.594C668.319 423.619 668.114 423.67 667.782 423.67C667.117 423.67 666.478 423.466 666.478 422.188V416.46H668.574V415.182ZM436.121 451.182H434.025V448.83H432.516V451.182H431.033V452.46H432.516V458.597C432.516 460.31 433.897 461.128 435.175 461.128C435.738 461.128 436.096 461.026 436.3 460.949L435.993 459.594C435.866 459.619 435.661 459.67 435.329 459.67C434.664 459.67 434.025 459.466 434.025 458.188V452.46H436.121V451.182ZM440.11 455.094C440.11 453.381 441.203 452.409 442.692 452.409C444.111 452.409 444.968 453.304 444.968 454.864V461H446.476V454.761C446.476 452.237 445.134 451.054 443.127 451.054C441.58 451.054 440.698 451.7 440.238 452.716H440.11V447.909H438.601V461H440.11V455.094ZM453.353 461.205C455.347 461.205 456.804 460.207 457.265 458.724L455.807 458.315C455.424 459.338 454.535 459.849 453.353 459.849C451.582 459.849 450.361 458.705 450.291 456.602H457.418V455.963C457.418 452.307 455.245 451.054 453.199 451.054C450.54 451.054 448.776 453.151 448.776 456.168C448.776 459.185 450.515 461.205 453.353 461.205ZM450.291 455.298C450.393 453.771 451.473 452.409 453.199 452.409C454.836 452.409 455.884 453.636 455.884 455.298H450.291ZM460.385 464.682C461.747 464.682 462.706 463.96 463.275 462.432L467.455 451.207L465.806 451.182L463.096 459.006H462.993L460.283 451.182H458.647L462.278 461.051L461.996 461.818C461.447 463.314 460.769 463.455 459.67 463.173L459.286 464.503C459.439 464.58 459.874 464.682 460.385 464.682ZM477.403 461.23C479.116 461.23 480.011 460.31 480.317 459.67H480.394V461H481.903V454.531C481.903 451.412 479.525 451.054 478.272 451.054C476.789 451.054 475.102 451.565 474.335 453.355L475.766 453.866C476.099 453.151 476.885 452.384 478.323 452.384C479.71 452.384 480.394 453.119 480.394 454.378V454.429C480.394 455.158 479.653 455.094 477.863 455.324C476.041 455.56 474.053 455.963 474.053 458.213C474.053 460.131 475.536 461.23 477.403 461.23ZM477.633 459.875C476.431 459.875 475.562 459.338 475.562 458.29C475.562 457.139 476.61 456.781 477.786 456.628C478.425 456.551 480.138 456.372 480.394 456.065V457.446C480.394 458.673 479.423 459.875 477.633 459.875ZM486.165 447.909H484.656V461H486.165V447.909ZM491.152 461H492.635L494.783 453.457H494.936L497.084 461H498.567L501.558 451.182H499.973L497.851 458.673H497.749L495.678 451.182H494.067L491.97 458.699H491.868L489.746 451.182H488.161L491.152 461ZM506.442 461.23C508.155 461.23 509.05 460.31 509.357 459.67H509.433V461H510.942V454.531C510.942 451.412 508.564 451.054 507.311 451.054C505.828 451.054 504.141 451.565 503.374 453.355L504.805 453.866C505.138 453.151 505.924 452.384 507.362 452.384C508.749 452.384 509.433 453.119 509.433 454.378V454.429C509.433 455.158 508.692 455.094 506.902 455.324C505.08 455.56 503.092 455.963 503.092 458.213C503.092 460.131 504.575 461.23 506.442 461.23ZM506.672 459.875C505.47 459.875 504.601 459.338 504.601 458.29C504.601 457.139 505.649 456.781 506.825 456.628C507.464 456.551 509.178 456.372 509.433 456.065V457.446C509.433 458.673 508.462 459.875 506.672 459.875ZM514.315 464.682C515.677 464.682 516.635 463.96 517.204 462.432L521.385 451.207L519.736 451.182L517.025 459.006H516.923L514.213 451.182H512.577L516.207 461.051L515.926 461.818C515.376 463.314 514.699 463.455 513.599 463.173L513.216 464.503C513.369 464.58 513.804 464.682 514.315 464.682ZM530.335 453.381C529.862 451.987 528.801 451.054 526.858 451.054C524.787 451.054 523.253 452.23 523.253 453.892C523.253 455.247 524.058 456.155 525.861 456.577L527.497 456.96C528.488 457.19 528.955 457.663 528.955 458.341C528.955 459.185 528.06 459.875 526.653 459.875C525.42 459.875 524.646 459.344 524.378 458.29L522.946 458.648C523.298 460.316 524.672 461.205 526.679 461.205C528.961 461.205 530.514 459.958 530.514 458.264C530.514 456.896 529.658 456.033 527.906 455.605L526.449 455.247C525.286 454.96 524.761 454.57 524.761 453.815C524.761 452.972 525.656 452.358 526.858 452.358C528.175 452.358 528.718 453.087 528.98 453.764L530.335 453.381ZM544.802 453.381C544.329 451.987 543.268 451.054 541.325 451.054C539.254 451.054 537.72 452.23 537.72 453.892C537.72 455.247 538.525 456.155 540.328 456.577L541.964 456.96C542.955 457.19 543.421 457.663 543.421 458.341C543.421 459.185 542.526 459.875 541.12 459.875C539.887 459.875 539.113 459.344 538.845 458.29L537.413 458.648C537.764 460.316 539.139 461.205 541.146 461.205C543.428 461.205 544.981 459.958 544.981 458.264C544.981 456.896 544.124 456.033 542.373 455.605L540.916 455.247C539.752 454.96 539.228 454.57 539.228 453.815C539.228 452.972 540.123 452.358 541.325 452.358C542.642 452.358 543.185 453.087 543.447 453.764L544.802 453.381ZM551.522 451.182H549.425V448.83H547.917V451.182H546.434V452.46H547.917V458.597C547.917 460.31 549.297 461.128 550.576 461.128C551.138 461.128 551.496 461.026 551.701 460.949L551.394 459.594C551.266 459.619 551.061 459.67 550.729 459.67C550.064 459.67 549.425 459.466 549.425 458.188V452.46H551.522V451.182ZM556.68 461.23C558.393 461.23 559.288 460.31 559.595 459.67H559.672V461H561.18V454.531C561.18 451.412 558.802 451.054 557.549 451.054C556.066 451.054 554.379 451.565 553.612 453.355L555.044 453.866C555.376 453.151 556.162 452.384 557.6 452.384C558.988 452.384 559.672 453.119 559.672 454.378V454.429C559.672 455.158 558.93 455.094 557.14 455.324C555.319 455.56 553.331 455.963 553.331 458.213C553.331 460.131 554.814 461.23 556.68 461.23ZM556.91 459.875C555.708 459.875 554.839 459.338 554.839 458.29C554.839 457.139 555.887 456.781 557.064 456.628C557.703 456.551 559.416 456.372 559.672 456.065V457.446C559.672 458.673 558.7 459.875 556.91 459.875ZM564.553 464.682C565.915 464.682 566.874 463.96 567.443 462.432L571.623 451.207L569.974 451.182L567.264 459.006H567.161L564.451 451.182H562.815L566.445 461.051L566.164 461.818C565.615 463.314 564.937 463.455 563.838 463.173L563.454 464.503C563.607 464.58 564.042 464.682 564.553 464.682ZM580.906 461H582.389L584.537 453.457H584.69L586.838 461H588.321L591.312 451.182H589.727L587.605 458.673H587.502L585.431 451.182H583.821L581.724 458.699H581.622L579.5 451.182H577.914L580.906 461ZM593.306 461H594.815V451.182H593.306V461ZM594.074 449.545C594.662 449.545 595.147 449.085 595.147 448.523C595.147 447.96 594.662 447.5 594.074 447.5C593.485 447.5 593 447.96 593 448.523C593 449.085 593.485 449.545 594.074 449.545ZM601.848 451.182H599.751V448.83H598.243V451.182H596.76V452.46H598.243V458.597C598.243 460.31 599.623 461.128 600.902 461.128C601.464 461.128 601.822 461.026 602.027 460.949L601.72 459.594C601.592 459.619 601.388 459.67 601.055 459.67C600.39 459.67 599.751 459.466 599.751 458.188V452.46H601.848V451.182ZM605.836 455.094C605.836 453.381 606.93 452.409 608.419 452.409C609.838 452.409 610.694 453.304 610.694 454.864V461H612.203V454.761C612.203 452.237 610.861 451.054 608.854 451.054C607.307 451.054 606.425 451.7 605.964 452.716H605.836V447.909H604.328V461H605.836V455.094ZM620.997 464.682C622.358 464.682 623.317 463.96 623.886 462.432L628.066 451.207L626.417 451.182L623.707 459.006H623.605L620.895 451.182H619.258L622.889 461.051L622.608 461.818C622.058 463.314 621.38 463.455 620.281 463.173L619.897 464.503C620.051 464.58 620.485 464.682 620.997 464.682ZM633.699 461.205C636.358 461.205 638.148 459.185 638.148 456.142C638.148 453.074 636.358 451.054 633.699 451.054C631.04 451.054 629.251 453.074 629.251 456.142C629.251 459.185 631.04 461.205 633.699 461.205ZM633.699 459.849C631.68 459.849 630.759 458.111 630.759 456.142C630.759 454.173 631.68 452.409 633.699 452.409C635.719 452.409 636.64 454.173 636.64 456.142C636.64 458.111 635.719 459.849 633.699 459.849ZM646.638 456.986C646.638 458.827 645.232 459.67 644.107 459.67C642.854 459.67 641.96 458.75 641.96 457.318V451.182H640.451V457.42C640.451 459.926 641.781 461.128 643.621 461.128C645.104 461.128 646.076 460.335 646.536 459.338H646.638V461H648.147V451.182H646.638V456.986Z" fill="white"/>
<g clip-path="url(#clip2_10_2)">
<path d="M569.843 241.307V288.781C569.465 289.535 568.698 290.043 567.812 290.043C567.748 290.043 567.685 290.04 567.622 290.035L567.63 290.036H512.194C512.128 290.044 512.051 290.048 511.973 290.048C510.876 290.048 509.987 289.159 509.987 288.062C509.987 287.984 509.991 287.907 510 287.831L509.999 287.84C509.999 272.613 509.999 257.387 509.999 242.161C509.994 242.106 509.99 242.042 509.99 241.977C509.99 240.88 510.879 239.991 511.976 239.991C512.047 239.991 512.116 239.995 512.185 240.002L512.176 240.001C530.666 240.001 549.145 240.001 567.612 240.001C567.687 239.992 567.774 239.986 567.863 239.986C568.75 239.986 569.511 240.525 569.837 241.293L569.842 241.307H569.843ZM532.544 264.983V270.575C532.545 270.941 532.596 271.295 532.69 271.631L532.683 271.603C533.038 272.503 533.901 273.128 534.909 273.128C535.419 273.128 535.892 272.968 536.28 272.695L536.272 272.7C539.6 270.784 542.892 268.85 546.185 266.899C546.865 266.531 547.318 265.823 547.318 265.009C547.318 264.195 546.864 263.487 546.196 263.124L546.185 263.118C542.892 261.097 539.513 259.163 536.133 257.212C535.78 256.992 535.351 256.861 534.892 256.861C533.583 256.861 532.523 257.922 532.523 259.23C532.523 259.28 532.525 259.33 532.528 259.379V259.372C532.65 261.236 532.545 263.118 532.545 264.982L532.544 264.983ZM519.443 246.551V243.572H513.572V246.551H519.443ZM513.484 286.376H519.442V283.449H513.484V286.376ZM528.833 243.571H523.066V246.533H528.833V243.571ZM532.456 243.571V246.533H538.24V243.484L532.456 243.571ZM547.613 246.551V243.572H541.846V246.534L547.613 246.551ZM557.038 243.571H551.219V246.533H557.038V243.571ZM547.631 286.394V283.554H541.847V286.481L547.631 286.394ZM528.815 286.394V283.554H523.048V286.481L528.815 286.394ZM538.24 286.394V283.554H532.473V286.498L538.24 286.394ZM557.038 283.449H551.219V286.376H557.038V283.449ZM566.289 246.551V243.485H560.627V246.551H566.289ZM566.289 283.449H560.627V286.393H566.306L566.289 283.449Z" fill="#BDAE82"/>
</g>
<path d="M89.6822 367C94.114 367 96.7987 364.259 96.7987 359.713C96.7987 355.182 94.114 352.455 89.7248 352.455H84.5259V367H89.6822ZM87.6012 364.365V355.089H89.5614C92.2887 355.089 93.7305 356.482 93.7305 359.713C93.7305 362.959 92.2887 364.365 89.5543 364.365H87.6012ZM99.0199 367H102.045V356.091H99.0199V367ZM100.54 354.685C101.442 354.685 102.18 353.996 102.18 353.151C102.18 352.312 101.442 351.624 100.54 351.624C99.6449 351.624 98.9062 352.312 98.9062 353.151C98.9062 353.996 99.6449 354.685 100.54 354.685ZM109.384 371.318C112.502 371.318 114.718 369.898 114.718 367.107V356.091H111.713V357.923H111.6C111.195 357.036 110.307 355.949 108.482 355.949C106.088 355.949 104.064 357.81 104.064 361.524C104.064 365.153 106.032 366.844 108.489 366.844C110.229 366.844 111.202 365.97 111.6 365.068H111.728V367.064C111.728 368.562 110.769 369.145 109.455 369.145C108.12 369.145 107.445 368.562 107.196 367.902L104.398 368.278C104.76 369.997 106.444 371.318 109.384 371.318ZM109.448 364.571C107.963 364.571 107.154 363.392 107.154 361.51C107.154 359.656 107.949 358.357 109.448 358.357C110.918 358.357 111.742 359.599 111.742 361.51C111.742 363.435 110.904 364.571 109.448 364.571ZM117.125 367H120.151V356.091H117.125V367ZM118.645 354.685C119.547 354.685 120.286 353.996 120.286 353.151C120.286 352.312 119.547 351.624 118.645 351.624C117.75 351.624 117.012 352.312 117.012 353.151C117.012 353.996 117.75 354.685 118.645 354.685ZM128.377 356.091H126.325V353.477H123.299V356.091H121.808V358.364H123.299V364.045C123.285 366.183 124.741 367.241 126.935 367.149C127.717 367.121 128.271 366.964 128.576 366.865L128.1 364.614C127.951 364.642 127.631 364.713 127.347 364.713C126.744 364.713 126.325 364.486 126.325 363.648V358.364H128.377V356.091ZM133.459 367.206C135.071 367.206 136.115 366.503 136.648 365.487H136.733V367H139.602V359.642C139.602 357.043 137.401 355.949 134.972 355.949C132.358 355.949 130.639 357.199 130.22 359.188L133.018 359.415C133.224 358.69 133.871 358.158 134.957 358.158C135.987 358.158 136.577 358.676 136.577 359.571V359.614C136.577 360.317 135.831 360.409 133.935 360.594C131.776 360.793 129.837 361.517 129.837 363.953C129.837 366.112 131.378 367.206 133.459 367.206ZM134.325 365.118C133.395 365.118 132.727 364.685 132.727 363.854C132.727 363.001 133.43 362.582 134.496 362.433C135.156 362.341 136.236 362.185 136.598 361.943V363.101C136.598 364.244 135.653 365.118 134.325 365.118ZM144.975 352.455H141.95V367H144.975V352.455ZM152.028 371.091H155.053V365.253H155.146C155.565 366.162 156.481 367.178 158.242 367.178C160.728 367.178 162.667 365.21 162.667 361.56C162.667 357.81 160.643 355.949 158.249 355.949C156.424 355.949 155.55 357.036 155.146 357.923H155.011V356.091H152.028V371.091ZM154.989 361.545C154.989 359.599 155.813 358.357 157.283 358.357C158.782 358.357 159.577 359.656 159.577 361.545C159.577 363.449 158.768 364.77 157.283 364.77C155.827 364.77 154.989 363.491 154.989 361.545ZM167.71 360.693C167.717 359.287 168.576 358.463 169.812 358.463C171.04 358.463 171.765 359.251 171.758 360.594V367H174.783V360.054C174.79 357.497 173.285 355.949 171.012 355.949C169.357 355.949 168.249 356.73 167.752 358.016H167.624V352.455H164.684V367H167.71V360.693ZM182.093 367.213C185.403 367.213 187.463 364.947 187.463 361.588C187.463 358.207 185.403 355.949 182.093 355.949C178.784 355.949 176.724 358.207 176.724 361.588C176.724 364.947 178.784 367.213 182.093 367.213ZM182.108 364.869C180.581 364.869 179.799 363.47 179.799 361.567C179.799 359.663 180.581 358.257 182.108 358.257C183.606 358.257 184.387 359.663 184.387 361.567C184.387 363.47 183.606 364.869 182.108 364.869ZM195.233 356.091H193.18V353.477H190.154V356.091H188.663V358.364H190.154V364.045C190.14 366.183 191.596 367.241 193.791 367.149C194.572 367.121 195.126 366.964 195.431 366.865L194.956 364.614C194.806 364.642 194.487 364.713 194.203 364.713C193.599 364.713 193.18 364.486 193.18 363.648V358.364H195.233V356.091ZM202.015 367.213C205.325 367.213 207.385 364.947 207.385 361.588C207.385 358.207 205.325 355.949 202.015 355.949C198.706 355.949 196.646 358.207 196.646 361.588C196.646 364.947 198.706 367.213 202.015 367.213ZM202.029 364.869C200.502 364.869 199.721 363.47 199.721 361.567C199.721 359.663 200.502 358.257 202.029 358.257C203.528 358.257 204.309 359.663 204.309 361.567C204.309 363.47 203.528 364.869 202.029 364.869ZM214.267 371.318C217.385 371.318 219.6 369.898 219.6 367.107V356.091H216.596V357.923H216.483C216.078 357.036 215.19 355.949 213.365 355.949C210.971 355.949 208.947 357.81 208.947 361.524C208.947 365.153 210.914 366.844 213.372 366.844C215.112 366.844 216.085 365.97 216.483 365.068H216.61V367.064C216.61 368.562 215.652 369.145 214.338 369.145C213.002 369.145 212.328 368.562 212.079 367.902L209.281 368.278C209.643 369.997 211.326 371.318 214.267 371.318ZM214.331 364.571C212.846 364.571 212.037 363.392 212.037 361.51C212.037 359.656 212.832 358.357 214.331 358.357C215.801 358.357 216.625 359.599 216.625 361.51C216.625 363.435 215.787 364.571 214.331 364.571ZM222.008 367H225.034V360.828C225.034 359.486 226.014 358.562 227.349 358.562C227.768 358.562 228.343 358.634 228.627 358.726V356.041C228.358 355.977 227.981 355.935 227.676 355.935C226.454 355.935 225.453 356.645 225.055 357.994H224.941V356.091H222.008V367ZM232.99 367.206C234.602 367.206 235.646 366.503 236.179 365.487H236.264V367H239.134V359.642C239.134 357.043 236.932 355.949 234.503 355.949C231.889 355.949 230.17 357.199 229.751 359.188L232.55 359.415C232.756 358.69 233.402 358.158 234.489 358.158C235.518 358.158 236.108 358.676 236.108 359.571V359.614C236.108 360.317 235.362 360.409 233.466 360.594C231.307 360.793 229.368 361.517 229.368 363.953C229.368 366.112 230.909 367.206 232.99 367.206ZM233.857 365.118C232.926 365.118 232.259 364.685 232.259 363.854C232.259 363.001 232.962 362.582 234.027 362.433C234.688 362.341 235.767 362.185 236.129 361.943V363.101C236.129 364.244 235.185 365.118 233.857 365.118ZM241.481 371.091H244.506V365.253H244.599C245.018 366.162 245.934 367.178 247.695 367.178C250.181 367.178 252.12 365.21 252.12 361.56C252.12 357.81 250.096 355.949 247.702 355.949C245.877 355.949 245.004 357.036 244.599 357.923H244.464V356.091H241.481V371.091ZM244.442 361.545C244.442 359.599 245.266 358.357 246.737 358.357C248.235 358.357 249.031 359.656 249.031 361.545C249.031 363.449 248.221 364.77 246.737 364.77C245.281 364.77 244.442 363.491 244.442 361.545ZM257.163 360.693C257.17 359.287 258.029 358.463 259.265 358.463C260.494 358.463 261.218 359.251 261.211 360.594V367H264.237V360.054C264.244 357.497 262.738 355.949 260.465 355.949C258.81 355.949 257.702 356.73 257.205 358.016H257.077V352.455H254.137V367H257.163V360.693ZM268.095 371.091C270.346 371.091 271.539 369.94 272.157 368.179L276.397 356.105L273.194 356.091L270.914 364.102H270.801L268.542 356.091H265.36L269.274 367.312L269.096 367.774C268.699 368.797 267.939 368.847 266.873 368.52L266.191 370.778C266.625 370.963 267.328 371.091 268.095 371.091Z" fill="white"/>
<path d="M42.2874 425H43.8726V419.145H50.8527V425H52.4379V411.909H50.8527V417.739H43.8726V411.909H42.2874V425ZM55.407 425H56.9156V415.182H55.407V425ZM56.1741 413.545C56.7622 413.545 57.248 413.085 57.248 412.523C57.248 411.96 56.7622 411.5 56.1741 411.5C55.586 411.5 55.1002 411.96 55.1002 412.523C55.1002 413.085 55.586 413.545 56.1741 413.545ZM63.6416 428.886C65.9939 428.886 67.8859 427.812 67.8859 425.281V415.182H66.4285V416.741H66.2751C65.9427 416.23 65.3291 415.054 63.4115 415.054C60.9314 415.054 59.2183 417.023 59.2183 420.04C59.2183 423.108 61.0081 424.847 63.3859 424.847C65.3035 424.847 65.9172 423.722 66.2496 423.185H66.3774V425.179C66.3774 426.815 65.2268 427.557 63.6416 427.557C61.8582 427.557 61.2318 426.617 60.8291 426.074L59.6274 426.918C60.241 427.947 61.4491 428.886 63.6416 428.886ZM63.5905 423.491C61.6984 423.491 60.7268 422.06 60.7268 420.014C60.7268 418.02 61.6729 416.409 63.5905 416.409C65.4314 416.409 66.403 417.892 66.403 420.014C66.403 422.188 65.4058 423.491 63.5905 423.491ZM72.1558 419.094C72.1558 417.381 73.2488 416.409 74.7382 416.409C76.1572 416.409 77.0138 417.304 77.0138 418.864V425H78.5223V418.761C78.5223 416.237 77.18 415.054 75.1729 415.054C73.626 415.054 72.7439 415.7 72.2836 416.716H72.1558V411.909H70.6473V425H72.1558V419.094ZM86.907 418.685H81.1798V420.091H86.907V418.685ZM97.7687 428.682V415.182H96.3113V416.741H96.1324C95.8 416.23 95.2119 415.054 93.2943 415.054C90.8142 415.054 89.1011 417.023 89.1011 420.116C89.1011 423.236 90.8142 425.205 93.2687 425.205C95.1608 425.205 95.8 424.028 96.1324 423.491H96.2602V428.682H97.7687ZM96.2858 420.091C96.2858 422.315 95.2886 423.849 93.4733 423.849C91.5812 423.849 90.6096 422.188 90.6096 420.091C90.6096 418.02 91.5557 416.409 93.4733 416.409C95.3142 416.409 96.2858 417.892 96.2858 420.091ZM106.718 420.986C106.718 422.827 105.311 423.67 104.186 423.67C102.934 423.67 102.039 422.75 102.039 421.318V415.182H100.53V421.42C100.53 423.926 101.86 425.128 103.701 425.128C105.184 425.128 106.155 424.335 106.615 423.338H106.718V425H108.226V415.182H106.718V420.986ZM113.878 425.23C115.591 425.23 116.486 424.31 116.793 423.67H116.87V425H118.378V418.531C118.378 415.412 116 415.054 114.748 415.054C113.265 415.054 111.577 415.565 110.81 417.355L112.242 417.866C112.574 417.151 113.361 416.384 114.799 416.384C116.186 416.384 116.87 417.119 116.87 418.378V418.429C116.87 419.158 116.128 419.094 114.339 419.324C112.517 419.56 110.529 419.963 110.529 422.213C110.529 424.131 112.012 425.23 113.878 425.23ZM114.108 423.875C112.907 423.875 112.037 423.338 112.037 422.29C112.037 421.139 113.086 420.781 114.262 420.628C114.901 420.551 116.614 420.372 116.87 420.065V421.446C116.87 422.673 115.898 423.875 114.108 423.875ZM122.64 411.909H121.132V425H122.64V411.909ZM125.403 425H126.912V415.182H125.403V425ZM126.17 413.545C126.758 413.545 127.244 413.085 127.244 412.523C127.244 411.96 126.758 411.5 126.17 411.5C125.582 411.5 125.096 411.96 125.096 412.523C125.096 413.085 125.582 413.545 126.17 413.545ZM133.945 415.182H131.848V412.83H130.339V415.182H128.856V416.46H130.339V422.597C130.339 424.31 131.72 425.128 132.998 425.128C133.561 425.128 133.919 425.026 134.123 424.949L133.817 423.594C133.689 423.619 133.484 423.67 133.152 423.67C132.487 423.67 131.848 423.466 131.848 422.188V416.46H133.945V415.182ZM137.185 428.682C138.547 428.682 139.506 427.96 140.074 426.432L144.255 415.207L142.606 415.182L139.896 423.006H139.793L137.083 415.182H135.447L139.077 425.051L138.796 425.818C138.246 427.314 137.569 427.455 136.469 427.173L136.086 428.503C136.239 428.58 136.674 428.682 137.185 428.682ZM151.313 428.682H152.822V423.491H152.95C153.282 424.028 153.921 425.205 155.813 425.205C158.268 425.205 159.981 423.236 159.981 420.116C159.981 417.023 158.268 415.054 155.788 415.054C153.87 415.054 153.282 416.23 152.95 416.741H152.771V415.182H151.313V428.682ZM152.796 420.091C152.796 417.892 153.768 416.409 155.609 416.409C157.526 416.409 158.472 418.02 158.472 420.091C158.472 422.188 157.501 423.849 155.609 423.849C153.793 423.849 152.796 422.315 152.796 420.091ZM163.791 419.094C163.791 417.381 164.884 416.409 166.373 416.409C167.792 416.409 168.649 417.304 168.649 418.864V425H170.157V418.761C170.157 416.237 168.815 415.054 166.808 415.054C165.261 415.054 164.379 415.7 163.918 416.716H163.791V411.909H162.282V425H163.791V419.094ZM176.905 425.205C179.565 425.205 181.354 423.185 181.354 420.142C181.354 417.074 179.565 415.054 176.905 415.054C174.246 415.054 172.457 417.074 172.457 420.142C172.457 423.185 174.246 425.205 176.905 425.205ZM176.905 423.849C174.886 423.849 173.965 422.111 173.965 420.142C173.965 418.173 174.886 416.409 176.905 416.409C178.925 416.409 179.846 418.173 179.846 420.142C179.846 422.111 178.925 423.849 176.905 423.849ZM187.927 415.182H185.83V412.83H184.322V415.182H182.839V416.46H184.322V422.597C184.322 424.31 185.703 425.128 186.981 425.128C187.543 425.128 187.901 425.026 188.106 424.949L187.799 423.594C187.671 423.619 187.467 423.67 187.134 423.67C186.47 423.67 185.83 423.466 185.83 422.188V416.46H187.927V415.182ZM194.079 425.205C196.738 425.205 198.528 423.185 198.528 420.142C198.528 417.074 196.738 415.054 194.079 415.054C191.42 415.054 189.63 417.074 189.63 420.142C189.63 423.185 191.42 425.205 194.079 425.205ZM194.079 423.849C192.059 423.849 191.139 422.111 191.139 420.142C191.139 418.173 192.059 416.409 194.079 416.409C196.099 416.409 197.02 418.173 197.02 420.142C197.02 422.111 196.099 423.849 194.079 423.849ZM207.785 417.381C207.312 415.987 206.251 415.054 204.308 415.054C202.237 415.054 200.703 416.23 200.703 417.892C200.703 419.247 201.508 420.155 203.311 420.577L204.947 420.96C205.938 421.19 206.405 421.663 206.405 422.341C206.405 423.185 205.51 423.875 204.104 423.875C202.87 423.875 202.097 423.344 201.828 422.29L200.396 422.648C200.748 424.316 202.122 425.205 204.129 425.205C206.411 425.205 207.964 423.958 207.964 422.264C207.964 420.896 207.108 420.033 205.356 419.605L203.899 419.247C202.736 418.96 202.212 418.57 202.212 417.815C202.212 416.972 203.106 416.358 204.308 416.358C205.625 416.358 206.168 417.087 206.43 417.764L207.785 417.381ZM215.298 425H216.806V415.182H215.298V425ZM216.065 413.545C216.653 413.545 217.139 413.085 217.139 412.523C217.139 411.96 216.653 411.5 216.065 411.5C215.477 411.5 214.991 411.96 214.991 412.523C214.991 413.085 215.477 413.545 216.065 413.545ZM221.078 419.094C221.078 417.381 222.139 416.409 223.583 416.409C224.983 416.409 225.833 417.323 225.833 418.864V425H227.342V418.761C227.342 416.256 226.006 415.054 224.018 415.054C222.535 415.054 221.615 415.719 221.154 416.716H221.027V415.182H219.569V425H221.078V419.094ZM239.431 415.182H237.334V412.83H235.826V415.182H234.343V416.46H235.826V422.597C235.826 424.31 237.206 425.128 238.485 425.128C239.047 425.128 239.405 425.026 239.61 424.949L239.303 423.594C239.175 423.619 238.971 423.67 238.638 423.67C237.973 423.67 237.334 423.466 237.334 422.188V416.46H239.431V415.182ZM243.419 419.094C243.419 417.381 244.513 416.409 246.002 416.409C247.421 416.409 248.277 417.304 248.277 418.864V425H249.786V418.761C249.786 416.237 248.444 415.054 246.437 415.054C244.89 415.054 244.008 415.7 243.547 416.716H243.419V411.909H241.911V425H243.419V419.094ZM256.662 425.205C258.657 425.205 260.114 424.207 260.574 422.724L259.117 422.315C258.733 423.338 257.845 423.849 256.662 423.849C254.892 423.849 253.671 422.705 253.6 420.602H260.728V419.963C260.728 416.307 258.554 415.054 256.509 415.054C253.85 415.054 252.085 417.151 252.085 420.168C252.085 423.185 253.824 425.205 256.662 425.205ZM253.6 419.298C253.703 417.771 254.783 416.409 256.509 416.409C258.145 416.409 259.193 417.636 259.193 419.298H253.6ZM275.039 417.381C274.566 415.987 273.505 415.054 271.562 415.054C269.491 415.054 267.957 416.23 267.957 417.892C267.957 419.247 268.762 420.155 270.565 420.577L272.201 420.96C273.192 421.19 273.659 421.663 273.659 422.341C273.659 423.185 272.764 423.875 271.358 423.875C270.124 423.875 269.35 423.344 269.082 422.29L267.65 422.648C268.002 424.316 269.376 425.205 271.383 425.205C273.665 425.205 275.218 423.958 275.218 422.264C275.218 420.896 274.362 420.033 272.61 419.605L271.153 419.247C269.99 418.96 269.465 418.57 269.465 417.815C269.465 416.972 270.36 416.358 271.562 416.358C272.879 416.358 273.422 417.087 273.684 417.764L275.039 417.381ZM281.759 415.182H279.662V412.83H278.154V415.182H276.671V416.46H278.154V422.597C278.154 424.31 279.535 425.128 280.813 425.128C281.375 425.128 281.733 425.026 281.938 424.949L281.631 423.594C281.503 423.619 281.299 423.67 280.966 423.67C280.302 423.67 279.662 423.466 279.662 422.188V416.46H281.759V415.182ZM290.216 420.986C290.216 422.827 288.809 423.67 287.684 423.67C286.432 423.67 285.537 422.75 285.537 421.318V415.182H284.028V421.42C284.028 423.926 285.358 425.128 287.199 425.128C288.682 425.128 289.653 424.335 290.113 423.338H290.216V425H291.724V415.182H290.216V420.986ZM298.195 425.205C300.087 425.205 300.726 424.028 301.058 423.491H301.237V425H302.695V411.909H301.186V416.741H301.058C300.726 416.23 300.138 415.054 298.22 415.054C295.74 415.054 294.027 417.023 294.027 420.116C294.027 423.236 295.74 425.205 298.195 425.205ZM298.399 423.849C296.507 423.849 295.535 422.188 295.535 420.091C295.535 418.02 296.481 416.409 298.399 416.409C300.24 416.409 301.212 417.892 301.212 420.091C301.212 422.315 300.214 423.849 298.399 423.849ZM305.667 425H307.175V415.182H305.667V425ZM306.434 413.545C307.022 413.545 307.508 413.085 307.508 412.523C307.508 411.96 307.022 411.5 306.434 411.5C305.846 411.5 305.36 411.96 305.36 412.523C305.36 413.085 305.846 413.545 306.434 413.545ZM313.927 425.205C316.586 425.205 318.376 423.185 318.376 420.142C318.376 417.074 316.586 415.054 313.927 415.054C311.268 415.054 309.478 417.074 309.478 420.142C309.478 423.185 311.268 425.205 313.927 425.205ZM313.927 423.849C311.907 423.849 310.987 422.111 310.987 420.142C310.987 418.173 311.907 416.409 313.927 416.409C315.947 416.409 316.867 418.173 316.867 420.142C316.867 422.111 315.947 423.849 313.927 423.849ZM108.912 461.23C110.626 461.23 111.52 460.31 111.827 459.67H111.904V461H113.412V454.531C113.412 451.412 111.035 451.054 109.782 451.054C108.299 451.054 106.611 451.565 105.844 453.355L107.276 453.866C107.608 453.151 108.395 452.384 109.833 452.384C111.22 452.384 111.904 453.119 111.904 454.378V454.429C111.904 455.158 111.162 455.094 109.373 455.324C107.551 455.56 105.563 455.963 105.563 458.213C105.563 460.131 107.046 461.23 108.912 461.23ZM109.143 459.875C107.941 459.875 107.072 459.338 107.072 458.29C107.072 457.139 108.12 456.781 109.296 456.628C109.935 456.551 111.648 456.372 111.904 456.065V457.446C111.904 458.673 110.932 459.875 109.143 459.875ZM117.674 455.094C117.674 453.381 118.735 452.409 120.18 452.409C121.58 452.409 122.43 453.323 122.43 454.864V461H123.939V454.761C123.939 452.256 122.603 451.054 120.615 451.054C119.132 451.054 118.211 451.719 117.751 452.716H117.623V451.182H116.166V461H117.674V455.094ZM130.403 461.205C132.295 461.205 132.934 460.028 133.266 459.491H133.445V461H134.903V447.909H133.394V452.741H133.266C132.934 452.23 132.346 451.054 130.428 451.054C127.948 451.054 126.235 453.023 126.235 456.116C126.235 459.236 127.948 461.205 130.403 461.205ZM130.607 459.849C128.715 459.849 127.743 458.188 127.743 456.091C127.743 454.02 128.689 452.409 130.607 452.409C132.448 452.409 133.42 453.892 133.42 456.091C133.42 458.315 132.422 459.849 130.607 459.849ZM146.926 461.205C149.585 461.205 151.375 459.185 151.375 456.142C151.375 453.074 149.585 451.054 146.926 451.054C144.267 451.054 142.477 453.074 142.477 456.142C142.477 459.185 144.267 461.205 146.926 461.205ZM146.926 459.849C144.906 459.849 143.986 458.111 143.986 456.142C143.986 454.173 144.906 452.409 146.926 452.409C148.946 452.409 149.866 454.173 149.866 456.142C149.866 458.111 148.946 459.849 146.926 459.849ZM155.186 455.094C155.186 453.381 156.247 452.409 157.692 452.409C159.092 452.409 159.942 453.323 159.942 454.864V461H161.45V454.761C161.45 452.256 160.114 451.054 158.126 451.054C156.643 451.054 155.723 451.719 155.263 452.716H155.135V451.182H153.678V461H155.186V455.094ZM173.539 451.182H171.443V448.83H169.934V451.182H168.451V452.46H169.934V458.597C169.934 460.31 171.315 461.128 172.593 461.128C173.156 461.128 173.514 461.026 173.718 460.949L173.411 459.594C173.284 459.619 173.079 459.67 172.747 459.67C172.082 459.67 171.443 459.466 171.443 458.188V452.46H173.539V451.182ZM177.528 455.094C177.528 453.381 178.621 452.409 180.11 452.409C181.529 452.409 182.386 453.304 182.386 454.864V461H183.894V454.761C183.894 452.237 182.552 451.054 180.545 451.054C178.998 451.054 178.116 451.7 177.656 452.716H177.528V447.909H176.019V461H177.528V455.094ZM190.771 461.205C192.765 461.205 194.222 460.207 194.683 458.724L193.225 458.315C192.842 459.338 191.953 459.849 190.771 459.849C189 459.849 187.779 458.705 187.709 456.602H194.836V455.963C194.836 452.307 192.663 451.054 190.617 451.054C187.958 451.054 186.194 453.151 186.194 456.168C186.194 459.185 187.933 461.205 190.771 461.205ZM187.709 455.298C187.811 453.771 188.891 452.409 190.617 452.409C192.254 452.409 193.302 453.636 193.302 455.298H187.709ZM203.702 455.094C203.702 453.381 204.763 452.409 206.207 452.409C207.607 452.409 208.457 453.323 208.457 454.864V461H209.966V454.761C209.966 452.256 208.63 451.054 206.642 451.054C205.159 451.054 204.239 451.719 203.778 452.716H203.651V451.182H202.193V461H203.702V455.094ZM215.612 461.23C217.325 461.23 218.22 460.31 218.526 459.67H218.603V461H220.112V454.531C220.112 451.412 217.734 451.054 216.481 451.054C214.998 451.054 213.311 451.565 212.544 453.355L213.975 453.866C214.308 453.151 215.094 452.384 216.532 452.384C217.919 452.384 218.603 453.119 218.603 454.378V454.429C218.603 455.158 217.862 455.094 216.072 455.324C214.25 455.56 212.262 455.963 212.262 458.213C212.262 460.131 213.745 461.23 215.612 461.23ZM215.842 459.875C214.64 459.875 213.771 459.338 213.771 458.29C213.771 457.139 214.819 456.781 215.995 456.628C216.634 456.551 218.347 456.372 218.603 456.065V457.446C218.603 458.673 217.632 459.875 215.842 459.875ZM227.135 451.182H225.038V448.83H223.53V451.182H222.047V452.46H223.53V458.597C223.53 460.31 224.911 461.128 226.189 461.128C226.751 461.128 227.109 461.026 227.314 460.949L227.007 459.594C226.879 459.619 226.675 459.67 226.342 459.67C225.678 459.67 225.038 459.466 225.038 458.188V452.46H227.135V451.182ZM235.592 456.986C235.592 458.827 234.185 459.67 233.06 459.67C231.808 459.67 230.913 458.75 230.913 457.318V451.182H229.404V457.42C229.404 459.926 230.734 461.128 232.575 461.128C234.058 461.128 235.029 460.335 235.489 459.338H235.592V461H237.1V451.182H235.592V456.986ZM239.863 461H241.372V454.787C241.372 453.457 242.42 452.486 243.852 452.486C244.254 452.486 244.67 452.562 244.772 452.588V451.054C244.6 451.041 244.203 451.028 243.98 451.028C242.803 451.028 241.781 451.693 241.423 452.665H241.32V451.182H239.863V461ZM250.378 461.205C252.372 461.205 253.83 460.207 254.29 458.724L252.833 458.315C252.449 459.338 251.561 459.849 250.378 459.849C248.607 459.849 247.387 458.705 247.316 456.602H254.443V455.963C254.443 452.307 252.27 451.054 250.225 451.054C247.566 451.054 245.801 453.151 245.801 456.168C245.801 459.185 247.54 461.205 250.378 461.205ZM247.316 455.298C247.419 453.771 248.499 452.409 250.225 452.409C251.861 452.409 252.909 453.636 252.909 455.298H247.316Z" fill="white"/>
<g clip-path="url(#clip3_10_2)">
<path d="M179.897 290.036C171.766 290.036 163.635 290.036 155.505 290.036C155.478 290.036 155.447 290.037 155.415 290.037C151.872 290.037 149 287.165 149 283.622C149 283.59 149 283.559 149.001 283.527V283.532C149.072 274.097 149.072 264.655 149.001 255.208C149.001 255.197 149.001 255.185 149.001 255.172C149.001 251.619 151.881 248.739 155.434 248.739C171.767 248.739 188.082 248.739 204.415 248.739C204.497 248.735 204.593 248.733 204.69 248.733C208.085 248.733 210.837 251.485 210.837 254.88C210.837 254.983 210.834 255.085 210.829 255.186L210.83 255.172V283.532C210.837 283.641 210.841 283.768 210.841 283.897C210.841 287.292 208.089 290.044 204.694 290.044C204.59 290.044 204.486 290.041 204.383 290.036L204.398 290.037L179.897 290.036ZM179.897 283.871C179.939 283.871 179.99 283.872 180.04 283.872C188.014 283.872 194.479 277.407 194.479 269.433C194.479 261.459 188.014 254.994 180.04 254.994C172.078 254.994 165.622 261.438 165.601 269.394V269.396C165.65 277.281 171.988 283.669 179.849 283.799H179.861L179.897 283.871ZM161.384 259.049C161.345 257.928 160.436 257.031 159.313 257.012H159.311C158.176 257.012 157.256 257.932 157.256 259.067C157.256 260.202 158.176 261.122 159.311 261.122C160.448 261.102 161.364 260.186 161.384 259.051V259.049Z" fill="#CCBA8D"/>
<path d="M191.28 246.165H168.532C168.889 244.735 169.211 243.359 169.568 241.983C169.646 240.853 170.582 239.966 171.725 239.966C171.859 239.966 171.991 239.978 172.118 240.002L172.105 240H187.938C188.008 239.992 188.089 239.987 188.17 239.987C189.219 239.987 190.085 240.766 190.224 241.776L190.225 241.787C190.565 243.074 190.886 244.36 191.208 245.647C191.244 245.808 191.244 245.969 191.279 246.165H191.28Z" fill="#CCBA8D"/>
<path d="M179.861 283.799C171.902 283.778 165.459 277.322 165.459 269.36C165.459 261.386 171.924 254.921 179.898 254.921C187.872 254.921 194.337 261.386 194.337 269.36C194.337 269.41 194.337 269.46 194.336 269.511V269.503C194.215 277.412 187.785 283.78 179.863 283.799H179.861ZM179.861 279.671C185.556 279.671 190.172 275.055 190.172 269.36C190.172 263.665 185.556 259.049 179.861 259.049C174.179 259.049 169.57 263.645 169.55 269.322V269.324C169.55 269.345 169.55 269.371 169.55 269.396C169.55 275.071 174.15 279.671 179.825 279.671C179.863 279.671 179.901 279.671 179.938 279.67H179.932L179.861 279.671Z" fill="#CCBA8D"/>
<path d="M161.384 259.049C161.365 260.174 160.468 261.083 159.35 261.122H159.346C158.211 261.122 157.291 260.202 157.291 259.067C157.291 257.932 158.211 257.012 159.346 257.012C160.455 257.05 161.345 257.94 161.383 259.046V259.05L161.384 259.049Z" fill="#BDAE82"/>
<path d="M180.129 261.14C184.507 261.284 188.019 264.801 188.152 269.169V269.182C188.154 269.22 188.156 269.265 188.156 269.311C188.156 270.443 187.272 271.368 186.156 271.434H186.15C186.145 271.434 186.138 271.434 186.132 271.434C184.987 271.434 184.059 270.506 184.059 269.361C184.02 267.109 182.215 265.292 179.972 265.233H179.966C179.949 265.233 179.93 265.234 179.91 265.234C178.785 265.234 177.873 264.322 177.873 263.197C177.873 263.165 177.874 263.134 177.875 263.102V263.106C177.929 262.005 178.836 261.132 179.946 261.132C180.01 261.132 180.073 261.135 180.135 261.14L180.127 261.139L180.129 261.14Z" fill="#CCBA8D"/>
</g>
<path d="M370 139H1070V141H370V139Z" fill="#BDAE82"/>
<path d="M644 100H796V180H644V100Z" fill="black"/>
<path d="M676.353 154.44C674.913 154.44 673.619 154.32 672.473 154.08C671.326 153.84 670.046 153.52 668.633 153.12C667.699 152.853 667.073 152.707 666.753 152.68L667.113 145.28H670.353L671.233 150.44C671.579 150.813 672.193 151.147 673.073 151.44C673.979 151.733 675.006 151.88 676.153 151.88C677.939 151.88 679.273 151.493 680.153 150.72C681.059 149.92 681.513 148.813 681.513 147.4C681.513 146.467 681.246 145.667 680.713 145C680.179 144.307 679.446 143.693 678.513 143.16C677.579 142.6 676.299 141.96 674.673 141.24C672.459 140.227 670.619 139.027 669.153 137.64C667.713 136.227 666.993 134.32 666.993 131.92C666.993 130.427 667.379 129.08 668.153 127.88C668.926 126.653 670.073 125.693 671.593 125C673.139 124.28 675.019 123.92 677.233 123.92C678.539 123.92 679.686 124.013 680.673 124.2C681.686 124.387 682.779 124.64 683.953 124.96C684.646 125.147 685.166 125.267 685.513 125.32L685.273 132.32H682.073L681.233 127.4C680.993 127.16 680.513 126.933 679.793 126.72C679.073 126.48 678.273 126.36 677.393 126.36C675.793 126.36 674.579 126.733 673.753 127.48C672.953 128.2 672.553 129.173 672.553 130.4C672.553 131.387 672.846 132.24 673.433 132.96C674.046 133.68 674.779 134.293 675.633 134.8C676.486 135.28 677.833 135.973 679.673 136.88C681.166 137.6 682.446 138.307 683.513 139C684.579 139.693 685.499 140.6 686.273 141.72C687.046 142.813 687.433 144.107 687.433 145.6C687.433 147.067 687.059 148.467 686.313 149.8C685.593 151.133 684.393 152.24 682.713 153.12C681.059 154 678.939 154.44 676.353 154.44ZM692.214 124.76L689.334 124.24V122.08L696.694 121.2H696.774L697.854 121.96V140.96L697.734 143.08L705.894 134.52L702.934 134.08V131.8H713.374V134.08L710.134 134.6L705.214 139.32L712.214 151.28L714.414 151.6V154H703.854V151.6L705.894 151.24L701.334 142.8L697.734 146.44L697.814 148.48V151.24L700.334 151.6V154H689.894V151.6L692.214 151.24V124.76ZM720.29 128.12C719.33 128.12 718.57 127.84 718.01 127.28C717.45 126.72 717.17 126 717.17 125.12C717.17 124.107 717.49 123.267 718.13 122.6C718.77 121.933 719.624 121.6 720.69 121.6C721.757 121.6 722.57 121.893 723.13 122.48C723.69 123.04 723.97 123.747 723.97 124.6C723.97 125.667 723.65 126.52 723.01 127.16C722.37 127.8 721.477 128.12 720.33 128.12H720.29ZM718.17 135.56L715.33 134.8V132.12L722.65 131.24H722.73L723.85 132.04V151.28L726.53 151.6V154H715.37V151.6L718.17 151.24V135.56ZM731.718 124.76L728.758 124.24V122.08L736.158 121.2H736.238L737.318 121.96V151.28L740.238 151.6V154H728.918V151.6L731.718 151.24V124.76ZM745.311 124.76L742.351 124.24V122.08L749.751 121.2H749.831L750.911 121.96V151.28L753.831 151.6V154H742.511V151.6L745.311 151.24V124.76ZM761.025 150.72C761.238 151.04 761.718 151.347 762.465 151.64C763.238 151.907 764.012 152.04 764.785 152.04C766.038 152.04 766.972 151.787 767.585 151.28C768.225 150.747 768.545 150.053 768.545 149.2C768.545 148.32 768.158 147.613 767.385 147.08C766.612 146.52 765.305 145.84 763.465 145.04L762.345 144.56C760.505 143.787 759.132 142.853 758.225 141.76C757.318 140.667 756.865 139.253 756.865 137.52C756.865 136.32 757.225 135.253 757.945 134.32C758.665 133.36 759.678 132.613 760.985 132.08C762.292 131.547 763.798 131.28 765.505 131.28C766.758 131.28 767.825 131.36 768.705 131.52C769.612 131.68 770.558 131.893 771.545 132.16C772.078 132.347 772.478 132.453 772.745 132.48V137.72H769.585L768.665 134.68C768.505 134.413 768.145 134.173 767.585 133.96C767.025 133.747 766.385 133.64 765.665 133.64C764.572 133.64 763.692 133.88 763.025 134.36C762.385 134.813 762.065 135.453 762.065 136.28C762.065 137.027 762.292 137.653 762.745 138.16C763.198 138.64 763.692 139.013 764.225 139.28C764.758 139.547 765.745 139.987 767.185 140.6C768.625 141.213 769.812 141.8 770.745 142.36C771.705 142.92 772.492 143.653 773.105 144.56C773.745 145.44 774.065 146.52 774.065 147.8C774.065 149.773 773.292 151.373 771.745 152.6C770.198 153.827 767.972 154.44 765.065 154.44C763.705 154.44 762.478 154.32 761.385 154.08C760.318 153.84 759.078 153.52 757.665 153.12L756.785 152.84V147.56H760.105L761.025 150.72Z" fill="#BDAE82"/>
<defs>
<clipPath id="clip0_10_2">
<rect width="32" height="50" fill="white" transform="translate(1244 240)"/>
</clipPath>
<clipPath id="clip1_10_2">
<rect width="66" height="50" fill="white" transform="translate(867 240)"/>
</clipPath>
<clipPath id="clip2_10_2">
<rect width="60" height="50" fill="white" transform="translate(510 240)"/>
</clipPath>
<clipPath id="clip3_10_2">
<rect width="62" height="50" fill="white" transform="translate(149 240)"/>
</clipPath>
</defs>
</svg>
